<?xml version="1.0" standalone="no"?>
<!DOCTYPE svg PUBLIC "-//W3C//DTD SVG 1.1//EN" "http://www.w3.org/Graphics/SVG/1.1/DTD/svg11.dtd" >
<!--
2013-9-30: Created.
-->
<svg>
<metadata>
Created by iconfont
</metadata>
<defs>

<font id="iconfont" horiz-adv-x="1024" >
  <font-face
    font-family="iconfont"
    font-weight="500"
    font-stretch="normal"
    units-per-em="1024"
    ascent="896"
    descent="-128"
  />
    <missing-glyph />
    
    <glyph glyph-name="icon-129" unicode="&#59258;" d="M754.073019 583.063893L833.330429 732.157936a23.961542 23.961542 0 0 1 1.023997 2.252794A68.812635 68.812635 0 0 1 737.279459 819.812125a96.460568 96.460568 0 0 0-120.62691 20.479951l-11.059174 12.69757A124.313302 124.313302 0 0 1 510.771203 895.997542a124.313302 124.313302 0 0 1-94.207774-43.212696l-16.58876-20.479951a83.967798 83.967798 0 0 0-105.062148-18.022356 71.679828 71.679828 0 0 1-102.399754-89.906985 12.49277 12.49277 0 0 1 1.023997-2.457594l75.980618-139.673265a415.538203 415.538203 0 0 1-202.341914-356.146345v-208.485899a145.612451 145.612451 0 0 1 145.407651-145.612451h598.833762a145.612451 145.612451 0 0 1 145.407651 145.612451V226.09835a415.538203 415.538203 0 0 1-202.751513 356.965543z m-514.046766 163.839607A20.479951 20.479951 0 0 0 245.760639 768.407449a20.479951 20.479951 0 0 0 23.756743 2.252794 135.372475 135.372475 0 0 1 168.959594 29.28633l16.79356 20.479951a73.523024 73.523024 0 0 0 55.295867 25.395139 73.727823 73.727823 0 0 0 55.500667-25.19034l11.059174-12.902369a147.660446 147.660446 0 0 1 184.319557-31.334325 17.817557 17.817557 0 0 0 25.395139-20.47995L704.511538 599.038255H319.693262z m665.598402-728.471851a94.412573 94.412573 0 0 0-94.207774-94.412574H212.583119a94.412573 94.412573 0 0 0-94.207774 94.412574V226.09835A364.543125 364.543125 0 0 0 311.91088 547.838378h400.383039a364.747925 364.747925 0 0 0 193.330736-321.740028zM650.649267 269.925445a25.599939 25.599939 0 1 1 0 51.199877h-84.582197l81.919804 81.919803a25.599939 25.599939 0 0 1-36.249513 36.044714L512 339.557278l-100.351759 100.14696a25.599939 25.599939 0 1 1-36.044714-36.249513l81.919804-81.919804h-84.172598a25.599939 25.599939 0 1 1 0-51.199877h113.049328v-84.172598h-113.049328a25.599939 25.599939 0 1 1 0-51.199877h113.049328V15.359656a25.599939 25.599939 0 0 1 51.199878 0v119.193314h113.049328a25.599939 25.599939 0 1 1 0 51.199877h-113.049328v84.172598z"  horiz-adv-x="1024" />

    
    <glyph glyph-name="icon-130" unicode="&#59259;" d="M512 785.8176a30.1056 30.1056 0 0 0 26.624-15.36l428.6464-742.1952a30.72 30.72 0 0 0-26.624-46.08H83.3536a30.72 30.72 0 0 0-26.624 46.08L485.376 770.4576a30.1056 30.1056 0 0 0 26.624 15.36m0 51.2a80.6912 80.6912 0 0 1-70.8608-40.96L12.4928 53.8624a81.92 81.92 0 0 1 70.8608-122.88h857.2928a81.92 81.92 0 0 1 70.8608 122.88L582.8608 796.0576a80.6912 80.6912 0 0 1-70.8608 40.96zM512 197.632a25.6 25.6 0 0 0-25.6 25.6V527.36a25.6 25.6 0 0 0 51.2 0v-305.152A25.6 25.6 0 0 0 512 197.632zM512 117.9648m-40.1408 0a40.1408 40.1408 0 1 1 80.2816 0 40.1408 40.1408 0 1 1-80.2816 0Z"  horiz-adv-x="1024" />

    
    <glyph glyph-name="icon-131" unicode="&#59260;" d="M380.519399 345.911381a239.614179 239.614179 0 0 1 239.409381 239.40938v71.269859a239.40938 239.40938 0 0 1-478.818761 0v-71.269859a239.614179 239.614179 0 0 1 239.40938-239.40938zM192.30963 656.59062a188.20977 188.20977 0 0 0 376.419539 0v-71.269859a188.20977 188.20977 0 0 0-376.419539 0zM705.739328 404.483736a266.237977 266.237977 0 0 1-219.953529-116.120718 309.450448 309.450448 0 0 1-83.557765 11.673511h-43.212471a307.197665 307.197665 0 0 1-307.197666-307.197665A100.760834 100.760834 0 0 1 152.78353-107.512373h450.556576a266.237977 266.237977 0 1 1 102.399222 511.996109z m-552.955798-460.796498A49.356425 49.356425 0 0 0 102.403113-6.956338 255.998054 255.998054 0 0 0 359.015563 248.836918h43.212471a252.516481 252.516481 0 0 0 58.162758-6.963147A266.237977 266.237977 0 0 1 524.287907-56.312762z m552.955798-20.479845A215.038366 215.038366 0 1 0 921.596887 138.245759a215.243164 215.243164 0 0 0-215.857559-215.038366zM805.47617 163.845564h-199.678483a25.599805 25.599805 0 0 1 0-51.199611h199.678483a25.599805 25.599805 0 0 1 0 51.199611z"  horiz-adv-x="1024" />

    
    <glyph glyph-name="icon-132" unicode="&#59261;" d="M380.519399 345.911381a239.614179 239.614179 0 0 1 239.409381 239.40938v71.269859a239.40938 239.40938 0 0 1-478.818761 0v-71.269859a239.614179 239.614179 0 0 1 239.40938-239.40938zM192.30963 656.59062a188.20977 188.20977 0 0 0 376.419539 0v-71.269859a188.20977 188.20977 0 0 0-376.419539 0zM705.739328 404.483736a266.237977 266.237977 0 0 1-219.953529-116.120718 309.450448 309.450448 0 0 1-83.557765 11.673511h-43.212471a307.197665 307.197665 0 0 1-307.197666-307.197665A100.760834 100.760834 0 0 1 152.78353-107.512373h450.556576a266.237977 266.237977 0 1 1 102.399222 511.996109z m-552.955798-460.796498A49.561223 49.561223 0 0 0 102.403113-6.956338 255.998054 255.998054 0 0 0 359.015563 248.836918h43.212471a252.516481 252.516481 0 0 0 58.162758-6.963147A266.237977 266.237977 0 0 1 524.287907-56.312762z m552.955798-20.479845A215.038366 215.038366 0 1 0 921.596887 138.245759a215.243164 215.243164 0 0 0-215.857559-215.038366zM805.47617 163.845564h-74.137037v74.137037a25.599805 25.599805 0 1 1-51.199611 0v-74.137037h-74.341835a25.599805 25.599805 0 0 1 0-51.199611h74.341835v-74.341835a25.599805 25.599805 0 0 1 51.199611 0v74.341835h74.137037a25.599805 25.599805 0 0 1 0 51.199611z"  horiz-adv-x="1024" />

    
    <glyph glyph-name="icon-133" unicode="&#59262;" d="M798.72 896H225.28a122.88 122.88 0 0 1-122.88-122.88v-778.24a122.88 122.88 0 0 1 122.88-122.88h573.44a122.88 122.88 0 0 1 122.88 122.88V773.12a122.88 122.88 0 0 1-122.88 122.88z m71.68-901.12a71.68 71.68 0 0 0-71.68-71.68H225.28A71.68 71.68 0 0 0 153.6-5.12V773.12A71.68 71.68 0 0 0 225.28 844.8h573.44A71.68 71.68 0 0 0 870.4 773.12zM262.9632 680.1408h163.84a25.6 25.6 0 0 1 0 51.2h-163.84a25.6 25.6 0 0 1 0-51.2zM262.9632 547.84h163.84a25.6 25.6 0 0 1 0 51.2h-163.84a25.6 25.6 0 0 1 0-51.2zM761.0368 732.16h-199.68a25.6 25.6 0 0 1-25.6-25.6v-266.24a25.6 25.6 0 0 1 25.6-25.6h199.68a25.6 25.6 0 0 1 25.6 25.6v266.24A25.6 25.6 0 0 1 761.0368 732.16z m-25.6-266.24h-148.48V680.1408h148.48zM430.08 465.92h-160.5632a25.6 25.6 0 0 1 0-51.2H430.08a25.6 25.6 0 0 1 0 51.2zM757.76 272.1792H266.24A25.6 25.6 0 0 1 266.24 220.16h491.52a25.6 25.6 0 0 1 0 51.2zM757.76 108.3392H266.24A25.6 25.6 0 0 1 266.24 56.32h491.52a25.6 25.6 0 0 1 0 51.2z"  horiz-adv-x="1024" />

    
    <glyph glyph-name="icon-134" unicode="&#59263;" d="M901.12 770.4576h-166.2976v61.44a25.6 25.6 0 0 1-51.2 0v-61.44H340.5824v61.44a25.6 25.6 0 1 1-51.2 0v-61.44H122.88a122.88 122.88 0 0 1-122.88-122.88v-614.4a122.88 122.88 0 0 1 122.88-122.88h778.24a122.88 122.88 0 0 1 122.88 122.88v614.4a122.88 122.88 0 0 1-122.88 122.88zM122.88 719.2576h166.5024v-39.936a25.6 25.6 0 1 1 51.2 0V719.2576h343.04v-39.936a25.6 25.6 0 0 1 51.2 0V719.2576H901.12a71.68 71.68 0 0 0 71.68-71.68v-84.3776h-921.6v84.3776A71.68 71.68 0 0 0 122.88 719.2576z m778.24-757.76H122.88a71.8848 71.8848 0 0 0-71.68 71.68V512h921.6v-478.8224a71.8848 71.8848 0 0 0-71.68-71.68zM724.3776 404.48L472.064 151.3472l-131.4816 131.4816a25.6 25.6 0 0 1-36.2496 0 26.0096 26.0096 0 0 1 0-36.2496L454.0416 97.28a24.7808 24.7808 0 0 1 18.0224-7.5776 25.6 25.6 0 0 1 18.2272 7.5776l270.336 270.336a25.6 25.6 0 0 1 0 36.2496 26.0096 26.0096 0 0 1-36.2496 0.6144z"  horiz-adv-x="1024" />

    
    <glyph glyph-name="icon-135" unicode="&#59264;" d="M941.899571 746.9056A310.4768 310.4768 0 0 1 520.625971 761.6512 309.8624 309.8624 0 0 1 99.352371 306.7904l344.8832-344.8832a106.7008 106.7008 0 0 1 151.1424 0L852.401971 219.136l30.3104 30.1056 59.1872 59.1872a310.272 310.272 0 0 1 0 438.4768zM479.665971-1.8432L135.601971 343.04a258.8672 258.8672 0 0 0 348.16 383.1808l-180.0192-180.8384a26.0096 26.0096 0 0 1 0-36.2496 188.2112 188.2112 0 0 1 266.24 0l66.9696 65.9456L846.667571 363.52a55.9104 55.9104 0 0 0 16.1792-39.5264 55.0912 55.0912 0 0 0-16.384-39.3216L821.477171 261.12l-102.4 102.4a25.6 25.6 0 0 1-36.0448-36.2496l102.4-102.4-64.512-64.3072-102.4 102.4A25.6 25.6 0 0 1 582.065971 226.5088l102.4-102.4-63.2832-63.0784-102.4 102.4a25.6 25.6 0 1 1-36.2496-36.2496l102.4-102.4-26.2144-26.2144a56.7296 56.7296 0 0 0-79.0528-0.4096z m430.08 352.0512a105.6768 105.6768 0 0 1-28.0576 50.176L672.177971 610.9184l15.36 15.1552a25.6 25.6 0 0 1-35.84 36.4544l-118.9888-117.1456a137.216 137.216 0 0 0-174.08-16.384l180.8384 181.6576a258.8672 258.8672 0 0 0 371.3024-360.448z"  horiz-adv-x="1032" />

    
    <glyph glyph-name="icon-136" unicode="&#59265;" d="M770.8672 201.3184l-27.4432 8.3968a161.1776 161.1776 0 0 0-108.544 111.0016l-9.216 32.3584a31.9488 31.9488 0 0 0 13.312 35.2256c77.2096 51.8144 122.88 127.5904 122.88 202.752v47.5136A256.2048 256.2048 0 0 1 536.7808 894.7712a250.6752 250.6752 0 0 1-275.0464-249.0368v-54.4768c0-75.1616 46.08-150.9376 122.88-202.752a31.9488 31.9488 0 0 0 13.312-35.2256L389.12 320.9216a160.9728 160.9728 0 0 0-108.544-111.2064l-28.672-8.8064a213.1968 213.1968 0 0 1-140.0832-199.8848A25.6 25.6 0 0 1 137.4208-25.6h85.1968a125.5424 125.5424 0 0 1 122.88-102.4h332.8a125.1328 125.1328 0 0 1 122.88 102.4h85.4016a25.6 25.6 0 0 1 25.6 25.6 213.6064 213.6064 0 0 1-141.312 201.3184zM678.2976-76.8H345.7024a73.728 73.728 0 0 0-70.2464 51.2h473.088a73.728 73.728 0 0 0-70.2464-51.2z m-513.2288 102.4a161.3824 161.3824 0 0 0 102.4 125.7472l27.4432 8.3968a211.968 211.968 0 0 1 143.36 146.2272l9.0112 32.5632a81.92 81.92 0 0 1-33.792 91.3408c-63.0784 42.3936-100.7616 102.4-100.7616 160.3584v55.5008A199.68 199.68 0 0 0 378.4704 793.6 197.0176 197.0176 0 0 0 532.48 843.776a204.8 204.8 0 0 0 179.2-204.8v-47.3088c0-57.9584-37.6832-117.9648-100.7616-160.3584a81.92 81.92 0 0 1-33.792-91.3408l9.0112-32.5632a211.968 211.968 0 0 1 143.36-146.2272l26.2144-7.9872a161.5872 161.5872 0 0 0 104.2432-126.1568z"  horiz-adv-x="1024" />

    
    <glyph glyph-name="icon-137" unicode="&#59266;" d="M375.3984-76.3904H168.96A148.6848 148.6848 0 0 0 20.48 72.0896v655.36A148.6848 148.6848 0 0 0 168.96 875.52h655.36a148.6848 148.6848 0 0 0 148.48-148.0704V445.44a25.6 25.6 0 1 0-51.2 0V727.4496a97.28 97.28 0 0 1-97.28 97.28h-655.36A97.28 97.28 0 0 1 71.68 727.4496v-655.36A97.4848 97.4848 0 0 1 168.96-25.6h206.4384a25.6 25.6 0 1 0 0-51.2zM512-107.52a22.9376 22.9376 0 0 0-6.5536 0 25.3952 25.3952 0 0 0-18.432 19.0464l-143.36 642.8672a25.6 25.6 0 0 0 34.816 29.2864l608.256-252.5184a25.6 25.6 0 0 0 3.6864-45.4656l-177.5616-110.3872 88.6784-105.6768a93.184 93.184 0 0 0-11.4688-131.072 90.7264 90.7264 0 0 0-67.7888-20.48 91.9552 91.9552 0 0 0-63.2832 32.768L671.3344 56.32 532.48-99.5328a25.3952 25.3952 0 0 0-20.48-7.9872z m159.1296 228.7616a25.8048 25.8048 0 0 0 19.2512-9.216L798.72-16.5888a40.96 40.96 0 1 1 64.1024 53.8624l-107.1104 128.2048a25.6 25.6 0 0 0 6.144 38.2976l159.744 99.5328-516.096 214.4256 121.4464-545.9968 125.952 140.4928a25.6 25.6 0 0 0 19.0464 8.6016z"  horiz-adv-x="1024" />

    
    <glyph glyph-name="icon-138" unicode="&#59267;" d="M512 865.28a491.52 491.52 0 1 1 491.52-491.52 491.52 491.52 0 0 1-491.52 491.52z m25.6-930.6112v57.5488a25.6 25.6 0 1 1-51.2 0v-57.5488A440.32 440.32 0 0 0 72.9088 348.16h58.368a25.6 25.6 0 0 1 0 51.2H72.9088A440.32 440.32 0 0 0 486.4 812.8512v-58.9824a25.6 25.6 0 1 1 51.2 0V812.8512a440.32 440.32 0 0 0 413.4912-413.4912h-58.368a25.6 25.6 0 0 1 0-51.2h58.368a440.32 440.32 0 0 0-413.4912-413.4912zM472.2688 274.8416h-133.12a156.672 156.672 0 0 0 11.0592 13.1072c6.7584 7.168 22.528 20.48 46.6944 40.96a641.6384 641.6384 0 0 1 63.0784 58.368 152.7808 152.7808 0 0 1 27.8528 40.96 102.4 102.4 0 0 1 8.6016 40.96 91.136 91.136 0 0 1-29.2864 68.608A110.592 110.592 0 0 1 389.12 565.6576a115.5072 115.5072 0 0 1-78.4384-25.6 97.4848 97.4848 0 0 1-30.5152-51.8144 24.3712 24.3712 0 0 1 3.6864-19.456 25.8048 25.8048 0 0 1 18.0224-10.4448h1.6384a25.3952 25.3952 0 0 1 26.8288 20.48 52.4288 52.4288 0 0 0 13.5168 28.0576 58.7776 58.7776 0 0 0 43.4176 15.9744 57.9584 57.9584 0 0 0 40.96-14.9504 49.152 49.152 0 0 0 15.5648-36.864 76.8 76.8 0 0 0-17.408-46.08 434.7904 434.7904 0 0 0-72.0896-68.608 430.08 430.08 0 0 1-53.6576-50.3808A157.696 157.696 0 0 1 272.7936 261.12c-4.096-10.8544-5.5296-28.8768 4.7104-33.3824a770.048 770.048 0 0 1 87.6544-2.2528h107.1104a24.576 24.576 0 1 1 0 48.9472zM732.5696 349.5936h-20.48v187.5968a26.8288 26.8288 0 0 1-48.9472 15.5648l-139.4688-197.8368a33.1776 33.1776 0 0 1-6.144-19.2512 33.5872 33.5872 0 0 1 32.768-33.5872h110.3872v-53.8624a25.3952 25.3952 0 1 1 50.7904 0V302.08h20.48a23.7568 23.7568 0 0 1 0 47.5136z m-71.8848 128v-128h-88.8832z"  horiz-adv-x="1024" />

    
    <glyph glyph-name="icon-139" unicode="&#59268;" d="M820.974855 811.026796L704.67418 878.18634A132.271542 132.271542 0 0 1 638.333655 896a136.161881 136.161881 0 0 1-117.938712-68.592827L143.441525 173.011125a45.865055 45.865055 0 0 1-4.299849-36.241583l40.950942-233.215613A44.227017 44.227017 0 0 1 221.453069-127.773541a40.950942 40.950942 0 0 1 8.599698 0l231.168065 77.397279A45.250791 45.250791 0 0 1 491.524529-27.648489l377.567682 653.781784a135.138107 135.138107 0 0 1-48.117356 184.893501z m-593.788654-884.949849L190.944617 133.083957 431.326645-4.920716z m240.177273 106.677203l-260.03848 150.085201 307.132062 530.724204 260.03848-150.289956z m357.50172 618.973483L798.656592 607.705371 539.232376 757.790572l25.389584 44.022262a85.587468 85.587468 0 0 0 73.711695 42.998489 81.901883 81.901883 0 0 0 40.950942-10.852l116.300674-67.159544a84.35894 84.35894 0 0 0 29.279923-115.072146zM925.809265-127.773541h-286.656591a25.594339 25.594339 0 0 0 0 51.188677h286.656591a25.594339 25.594339 0 1 0 0-51.188677z"  horiz-adv-x="1024" />

    
    <glyph glyph-name="icon-2" unicode="&#59129;" d="M860.16 855.04H163.84a122.88 122.88 0 0 1-122.88-122.88v-696.32a122.88 122.88 0 0 1 122.88-122.88h696.32a122.88 122.88 0 0 1 122.88 122.88V732.16a122.88 122.88 0 0 1-122.88 122.88zM163.84 803.84h696.32A71.68 71.68 0 0 0 931.84 732.16v-547.4304l-204.8 204.8a25.6 25.6 0 0 1-36.2496 0l-154.624-154.624-222.4128 222.0032a25.6 25.6 0 0 1-36.2496 0L92.16 271.36V732.16A71.68 71.68 0 0 0 163.84 803.84z m696.32-839.68H163.84A71.68 71.68 0 0 0 92.16 35.84000000000003v163.84l203.5712 203.5712L518.144 180.6336a25.6 25.6 0 0 1 36.2496 0l154.624 154.624L931.84 112.23040000000003V35.84000000000003a71.68 71.68 0 0 0-71.68-71.68zM720.6912 483.7376a124.1088 124.1088 0 1 1-124.1088 124.1088 124.3136 124.3136 0 0 1 124.1088-124.1088z m0 197.0176a72.9088 72.9088 0 1 0-72.9088-72.9088 73.1136 73.1136 0 0 0 72.9088 73.1136z"  horiz-adv-x="1024" />

    
    <glyph glyph-name="icon-3" unicode="&#59130;" d="M901.12 793.6H122.88a122.88 122.88 0 0 1-122.88-122.88v-573.44a122.88 122.88 0 0 1 122.88-122.88h778.24a122.88 122.88 0 0 1 122.88 122.88V670.72a122.88 122.88 0 0 1-122.88 122.88zM122.88 742.4h778.24a71.68 71.68 0 0 0 71.68-71.68v-70.4512L512 360.448 51.2 600.2688V670.72A71.68 71.68 0 0 0 122.88 742.4z m778.24-716.8H122.88A71.68 71.68 0 0 0 51.2 97.27999999999997V542.5152l448.9216-233.6768a25.6 25.6 0 0 1 23.552 0L972.8 542.5152V97.27999999999997a71.68 71.68 0 0 0-71.68-71.68z"  horiz-adv-x="1024" />

    
    <glyph glyph-name="icon-4" unicode="&#59131;" d="M359.0144 803.84A71.68 71.68 0 0 0 430.08 732.16v-266.24H163.84a71.68 71.68 0 0 0-71.68 71.68V732.16A71.68 71.68 0 0 0 163.84 803.84h195.1744m0 51.2H163.84a122.88 122.88 0 0 1-122.88-122.88v-195.1744a122.88 122.88 0 0 1 122.88-122.88h277.0944a40.96 40.96 0 0 1 40.96 40.96V732.16a122.88 122.88 0 0 1-122.88 122.88zM860.16 803.84A71.68 71.68 0 0 0 931.84 732.16v-195.1744A71.68 71.68 0 0 0 860.16 465.92H593.92V732.16a71.68 71.68 0 0 0 71.68 71.68H860.16M860.16 855.04h-195.1744a122.88 122.88 0 0 1-122.88-122.88v-277.0944a40.96 40.96 0 0 1 40.96-40.96H860.16a122.88 122.88 0 0 1 122.88 122.88V732.16a122.88 122.88 0 0 1-122.88 122.88zM430.08 302.08000000000004v-266.24a71.68 71.68 0 0 0-71.68-71.68H163.84A71.68 71.68 0 0 0 92.16 35.84000000000003v195.1744A71.68 71.68 0 0 0 163.84 302.08000000000004h266.24m10.24 51.2H163.84a122.88 122.88 0 0 1-122.88-122.88V35.84000000000003a122.88 122.88 0 0 1 122.88-122.88h195.1744a122.88 122.88 0 0 1 122.88 122.88V312.9344a40.96 40.96 0 0 1-40.96 40.96zM860.16 302.08000000000004a71.68 71.68 0 0 0 71.68-71.68V35.84000000000003a71.68 71.68 0 0 0-71.68-71.68h-195.1744A71.68 71.68 0 0 0 593.92 35.84000000000003V302.08000000000004h266.24m0 51.2H583.0656a40.96 40.96 0 0 1-40.96-40.96V35.84000000000003a122.88 122.88 0 0 1 122.88-122.88H860.16a122.88 122.88 0 0 1 122.88 122.88v195.1744a122.88 122.88 0 0 1-122.88 122.88z"  horiz-adv-x="1024" />

    
    <glyph glyph-name="icon-5" unicode="&#59132;" d="M901.12 829.44H122.88a122.88 122.88 0 0 1-122.88-122.88v-532.48a122.88 122.88 0 0 1 122.88-122.88h259.4816l100.7616-100.7616a40.96 40.96 0 0 1 57.9584 0l100.7616 100.7616H901.12a122.88 122.88 0 0 1 122.88 122.88v532.48a122.88 122.88 0 0 1-122.88 122.88z m71.68-655.36a71.68 71.68 0 0 0-71.68-71.68H641.6384a51.2 51.2 0 0 1-36.2496-14.9504L512-5.1200000000000045l-93.3888 93.3888a51.2 51.2 0 0 1-36.2496 14.9504H122.88a71.68 71.68 0 0 0-71.68 71.68v532.48A71.68 71.68 0 0 0 122.88 778.24h778.24a71.68 71.68 0 0 0 71.68-71.68zM302.2848 506.88a25.3952 25.3952 0 0 1-8.6016 1.6384 25.6 25.6 0 0 1-24.1664-16.7936l-31.5392-86.6304a25.6 25.6 0 0 1 15.36-32.768 25.3952 25.3952 0 0 1 8.6016-1.6384 25.6 25.6 0 0 1 24.7808 17.6128l31.5392 86.6304a25.6 25.6 0 0 1-15.9744 31.9488zM536.576 506.88a25.3952 25.3952 0 0 1-8.6016 1.6384 25.6 25.6 0 0 1-24.1664-16.7936l-31.5392-86.6304a25.6 25.6 0 0 1 15.36-32.768 25.3952 25.3952 0 0 1 8.6016-1.6384 25.6 25.6 0 0 1 24.1664 16.7936l31.5392 86.6304a25.6 25.6 0 0 1-15.36 32.768zM770.6624 506.88a25.3952 25.3952 0 0 1-8.6016 1.6384 25.6 25.6 0 0 1-24.1664-16.7936l-31.5392-86.6304a25.6 25.6 0 0 1 15.36-32.768 25.3952 25.3952 0 0 1 8.6016-1.6384 25.6 25.6 0 0 1 24.1664 16.7936l31.5392 86.6304a25.6 25.6 0 0 1-15.36 32.768z"  horiz-adv-x="1024" />

    
    <glyph glyph-name="icon-6" unicode="&#59133;" d="M1009.663104 7.783998999999994l-56.115099 532.479041a122.879779 122.879779 0 0 1-122.879779 109.977402h-88.268641v22.52796A219.545205 219.545205 0 0 1 523.05918 892.108807h-22.11836A219.545205 219.545205 0 0 1 281.600415 672.768402V650.240442H192.512575a122.879779 122.879779 0 0 1-122.879779-109.977402l-55.2959-532.479041a122.879779 122.879779 0 0 1 122.879779-135.782156h750.385849a122.879779 122.879779 0 0 1 122.06058 135.782156zM332.800323 672.768402a168.345297 168.345297 0 0 0 168.140497 168.140497h22.11836a168.345297 168.345297 0 0 0 168.140497-168.140497V650.240442h-358.399354z m608.050105-725.809894a70.860672 70.860672 0 0 0-53.247904-23.756757H136.397476a71.679871 71.679871 0 0 0-71.270272 79.257457l56.115099 532.479042A71.475071 71.475071 0 0 0 192.512575 599.040535h89.08784v-89.907039a40.959926 40.959926 0 1 1 51.199908-3.071994V599.040535h358.399354V506.8807a40.959926 40.959926 0 1 1 51.199908 3.071995V599.040535h89.08784a71.475071 71.475071 0 0 0 71.270272-64.102285l56.115099-532.479042a70.860672 70.860672 0 0 0-18.022368-55.5007z"  horiz-adv-x="1024" />

    
    <glyph glyph-name="icon-7" unicode="&#59134;" d="M917.9136 607.6415999999999L560.7424 879.2064a81.92 81.92 0 0 1-99.328 0L105.8816 607.6415999999999a83.5584 83.5584 0 0 1-32.9728-66.3552V-5.1200000000000045a122.88 122.88 0 0 1 122.88-122.88h632.2176a122.88 122.88 0 0 1 122.88 122.88V541.0816a83.5584 83.5584 0 0 1-32.9728 66.56zM593.92-76.79999999999995h-163.84V214.8352a15.5648 15.5648 0 0 0 15.36 15.36h131.2768a15.5648 15.5648 0 0 0 15.36-15.36zM901.12-5.1200000000000045a71.68 71.68 0 0 0-71.68-71.68h-184.32V214.8352A66.56 66.56 0 0 1 577.7408 281.6h-131.4816a66.56 66.56 0 0 1-66.56-66.56V-76.79999999999995h-184.32A71.68 71.68 0 0 0 124.3136-5.1200000000000045V541.2864a32.5632 32.5632 0 0 0 12.6976 25.8048L492.544 838.4512a30.72 30.72 0 0 0 37.2736 0l357.1712-271.36a32.5632 32.5632 0 0 0 12.9024-25.8048z"  horiz-adv-x="1024" />

    
    <glyph glyph-name="icon-8" unicode="&#59135;" d="M977.3056 849.3056a107.7248 107.7248 0 0 1-151.9616 0L390.7584 414.72a25.6 25.6 0 0 1-6.9632-13.1072l-28.672-145.2032a25.6 25.6 0 0 1 25.1904-30.5152h5.12l144.5888 29.2864a25.6 25.6 0 0 1 13.1072 6.9632l434.176 434.9952a107.7248 107.7248 0 0 1 0 152.1664zM512 304.3328l-99.328-20.48 20.48 99.7376L789.2992 740.9664l79.6672-79.6672zM941.056 733.3888L905.216 697.5488 825.5488 777.216l35.84 35.84a56.32 56.32 0 0 0 79.6672-79.6672zM884.1216 465.92a25.6 25.6 0 0 1-19.2512-30.72A403.8656 403.8656 0 1 0 567.5008 735.8464a25.6 25.6 0 1 1 12.0832 49.7664A455.2704 455.2704 0 1 1 914.8416 445.44a25.6 25.6 0 0 1-30.72 20.48z"  horiz-adv-x="1024" />

    
    <glyph glyph-name="icon-9" unicode="&#59136;" d="M901.12 726.2208h-179.2v11.8784A107.7248 107.7248 0 0 1 614.4 845.6192H409.6a107.7248 107.7248 0 0 1-107.52-107.52v-11.8784H122.88a122.88 122.88 0 0 1-122.88-122.88v-532.48a122.88 122.88 0 0 1 122.88-122.88h778.24a122.88 122.88 0 0 1 122.88 122.88v532.48a122.88 122.88 0 0 1-122.88 122.88z m-547.84 11.8784A56.32 56.32 0 0 0 409.6 793.6h204.8a56.32 56.32 0 0 0 56.32-56.32v-11.8784h-317.44zM972.8 70.86080000000004a71.68 71.68 0 0 0-71.68-71.68H122.88a71.68 71.68 0 0 0-71.68 71.68v532.48a71.68 71.68 0 0 0 71.68 71.68h778.24a71.68 71.68 0 0 0 71.68-71.68zM512 625.4592a288.3584 288.3584 0 1 1 288.3584-288.3584A288.768 288.768 0 0 1 512 625.4592z m0-525.7216a237.1584 237.1584 0 1 0 237.1584 237.3632A237.568 237.568 0 0 0 512 99.73760000000004zM882.2784 621.9775999999999h-40.96a25.6 25.6 0 0 1 0-51.2h40.96a25.6 25.6 0 0 1 0 51.2z"  horiz-adv-x="1024" />

    
    <glyph glyph-name="icon-10" unicode="&#59137;" d="M901.12 827.8016H122.88a122.88 122.88 0 0 1-122.88-122.88v-491.52a122.88 122.88 0 0 1 122.88-122.88h281.6v-124.5184H286.72a25.6 25.6 0 0 1 0-51.2h450.56a25.6 25.6 0 0 1 0 51.2h-117.76v124.5184H901.12a122.88 122.88 0 0 1 122.88 122.88v491.52a122.88 122.88 0 0 1-122.88 122.88zM568.32-34.201599999999985h-112.64v124.7232h112.64zM972.8 213.40160000000003a71.68 71.68 0 0 0-71.68-71.68H122.88a71.68 71.68 0 0 0-71.68 71.68v491.52A71.68 71.68 0 0 0 122.88 776.6016h778.24a71.68 71.68 0 0 0 71.68-71.68z"  horiz-adv-x="1024" />

    
    <glyph glyph-name="icon-11" unicode="&#59138;" d="M798.72 896H225.28a122.88 122.88 0 0 1-122.88-122.88v-778.24a122.88 122.88 0 0 1 122.88-122.88h573.44a122.88 122.88 0 0 1 122.88 122.88V773.12a122.88 122.88 0 0 1-122.88 122.88z m71.68-901.12a71.68 71.68 0 0 0-71.68-71.68H225.28A71.68 71.68 0 0 0 153.6-5.1200000000000045V773.12A71.68 71.68 0 0 0 225.28 844.8h573.44A71.68 71.68 0 0 0 870.4 773.12zM716.8 616.0384H307.2a25.6 25.6 0 0 1 0-51.2h409.6a25.6 25.6 0 0 1 0 51.2zM716.8 409.6H307.2a25.6 25.6 0 0 1 0-51.2h409.6a25.6 25.6 0 0 1 0 51.2zM716.8 203.16160000000002H307.2a25.6 25.6 0 0 1 0-51.2h409.6a25.6 25.6 0 0 1 0 51.2z"  horiz-adv-x="1024" />

    
    <glyph glyph-name="icon-12" unicode="&#59139;" d="M640 20.480000000000018h-286.72a25.6 25.6 0 0 1 0-51.2h286.72a25.6 25.6 0 0 1 0 51.2zM890.0608 575.8976v61.44a20.48 20.48 0 0 1-18.8416 20.48V773.12a122.88 122.88 0 0 1-122.88 122.88h-491.52a122.88 122.88 0 0 1-122.88-122.88v-778.24a122.88 122.88 0 0 1 122.88-122.88h491.52a122.88 122.88 0 0 1 122.88 122.88V423.3216a20.48 20.48 0 0 1 18.8416 20.48v61.44a20.48 20.48 0 0 1-18.8416 20.48v30.72a20.48 20.48 0 0 1 18.8416 19.456zM819.2-5.1200000000000045a71.68 71.68 0 0 0-71.68-71.68h-491.52A71.68 71.68 0 0 0 184.32-5.1200000000000045V773.12a71.68 71.68 0 0 0 71.68 71.68h125.7472a67.9936 67.9936 0 0 1 65.3312-49.5616h92.16a67.9936 67.9936 0 0 1 66.1504 49.5616h143.36A71.68 71.68 0 0 0 819.2 773.12z"  horiz-adv-x="1024" />

    
    <glyph glyph-name="icon-13" unicode="&#59140;" d="M921.6 16.998399999999947h-35.84V460.8a373.9648 373.9648 0 0 1-348.16 372.5312V870.4a25.6 25.6 0 0 1-51.2 0v-37.0688a373.9648 373.9648 0 0 1-348.16-372.5312v-443.8016H102.4a25.6 25.6 0 0 1 0-51.2h249.4464A122.88 122.88 0 0 1 471.04-128h81.92a122.88 122.88 0 0 1 119.1936 93.7984H921.6a25.6 25.6 0 0 1 0 51.2zM552.96-76.79999999999995h-81.92a71.68 71.68 0 0 0-64.7168 40.96h211.3536a71.68 71.68 0 0 0-64.7168-40.96zM189.44 460.8a322.56 322.56 0 0 0 645.12 0v-443.8016H189.44z"  horiz-adv-x="1024" />

    
    <glyph glyph-name="icon-14" unicode="&#59141;" d="M472.064 284.0576a307.2 307.2 0 1 1-264.8064 264.8064 307.2 307.2 0 0 1 264.8064-264.8064zM512 332.79999999999995a256.2048 256.2048 0 0 0-255.7952 253.1328h282.2144a20.48 20.48 0 0 1 17.6128 10.24l27.8528 47.9232 31.744-48.7424a20.48 20.48 0 0 1 17.2032-9.216h134.9632A256.2048 256.2048 0 0 0 512 332.79999999999995z m0 512a256.4096 256.4096 0 0 0 251.2896-207.6672H655.36a10.24 10.24 0 0 0-8.6016 4.7104l-65.3312 99.9424-57.7536-99.328a10.24 10.24 0 0 0-8.8064-5.12H260.7104A256.4096 256.4096 0 0 0 512 844.8zM614.4 240.64H409.6A245.76 245.76 0 0 1 163.84-5.1200000000000045v-81.92a40.96 40.96 0 0 1 40.96-40.96h614.4a40.96 40.96 0 0 1 40.96 40.96v81.92a245.76 245.76 0 0 1-245.76 245.76z m194.56-317.44h-593.92V-5.1200000000000045a194.7648 194.7648 0 0 0 194.56 194.56h204.8a194.7648 194.7648 0 0 0 194.56-194.56z"  horiz-adv-x="1024" />

    
    <glyph glyph-name="icon-15" unicode="&#59142;" d="M997.601918 409.988809H961.790568a448.358114 448.358114 0 0 1-113.573142 274.007994l25.988809 25.988809a25.579536 25.579536 0 1 1-36.220623 36.220623l-26.807355-25.988809A448.358114 448.358114 0 0 1 537.170264 834.609113V870.420464a25.579536 25.579536 0 0 1-51.159073 0V834.609113a448.358114 448.358114 0 0 1-274.007994-114.391687L186.014388 746.206235a25.579536 25.579536 0 1 1-36.220623-36.220623l25.988809-25.988809A448.358114 448.358114 0 0 1 61.390887 409.988809H25.579536a25.579536 25.579536 0 0 1 0-51.159073H61.390887a448.358114 448.358114 0 0 1 114.391687-274.007993l-25.988809-25.988809a25.579536 25.579536 0 0 1 36.220623-36.220624l25.988809 25.988809A448.358114 448.358114 0 0 1 486.011191-65.79056800000001v-36.629896a25.579536 25.579536 0 0 1 51.159073 0V-65.79056800000001a448.358114 448.358114 0 0 1 274.007993 113.573142l25.988809-25.988809a25.579536 25.579536 0 1 1 36.220624 36.220623l-25.988809 25.988809A448.358114 448.358114 0 0 1 961.790568 358.829736h36.629896a25.579536 25.579536 0 0 1 0 51.159073zM511.590727-14.631494999999973A399.040767 399.040767 0 1 0 910.631495 384.409273 399.45004 399.45004 0 0 0 511.590727-14.631494999999973zM511.590727 635.0887290000001A250.679456 250.679456 0 1 1 762.270184 384.409273 250.884093 250.884093 0 0 1 511.590727 635.0887290000001z m0-450.19984A199.520384 199.520384 0 1 0 711.111111 384.409273 199.72502 199.72502 0 0 0 511.590727 184.88888899999995z"  horiz-adv-x="1024" />

    
    <glyph glyph-name="icon-16" unicode="&#59143;" d="M655.36 527.36a71.68 71.68 0 0 0 71.68-71.68v-286.72A235.52 235.52 0 0 0 491.52-66.55999999999995H286.72A235.52 235.52 0 0 0 51.2 169.57439999999997v286.72A71.68 71.68 0 0 0 122.88 527.36h532.48m0 51.2H122.88a122.88 122.88 0 0 1-122.88-122.88v-286.72a286.72 286.72 0 0 1 286.72-286.72h204.8a286.72 286.72 0 0 1 286.72 286.72v286.72a122.88 122.88 0 0 1-122.88 122.88zM875.7248 157.69600000000003a25.6 25.6 0 1 0 0 51.2A97.28 97.28 0 1 1 778.24 305.97119999999995a25.6 25.6 0 0 0-51.2 0 148.2752 148.2752 0 1 0 148.2752-148.2752zM159.744 613.7855999999999a25.6 25.6 0 0 0-12.4928 47.9232c8.6016 4.9152 33.1776 23.1424 32.1536 40.96a61.44 61.44 0 0 1-19.0464 36.0448 94.6176 94.6176 0 0 0-28.2624 62.8736A93.184 93.184 0 0 0 184.32 882.2784a25.6 25.6 0 0 0 22.528-45.8752A43.4176 43.4176 0 0 1 184.32 801.5871999999999c0-9.8304 5.5296-16.9984 16.384-29.696a108.1344 108.1344 0 0 0 30.9248-65.7408c3.072-53.4528-52.0192-85.6064-58.368-89.088a25.6 25.6 0 0 0-13.5168-3.2768zM367.2064 613.7855999999999a25.6 25.6 0 0 0-12.4928 47.9232c8.6016 4.9152 33.1776 23.1424 32.1536 40.96A61.44 61.44 0 0 1 368.64 739.1232a94.8224 94.8224 0 0 0-28.2624 62.464 93.184 93.184 0 0 0 51.2 80.6912 25.6 25.6 0 0 0 22.528-45.8752 43.4176 43.4176 0 0 1-23.552-34.816c0-9.6256 5.5296-16.9984 16.384-29.696a108.1344 108.1344 0 0 0 30.9248-65.7408c3.072-53.4528-52.0192-85.6064-58.368-89.088a25.6 25.6 0 0 0-12.288-3.2768zM574.6688 613.7855999999999a25.6 25.6 0 0 0-12.4928 47.9232c8.6016 4.9152 33.1776 23.1424 31.9488 40.96a61.44 61.44 0 0 1-19.0464 36.0448 94.6176 94.6176 0 0 0-28.2624 62.464A93.184 93.184 0 0 0 599.04 882.2784a25.6 25.6 0 0 0 22.528-45.8752 43.4176 43.4176 0 0 1-23.552-34.816c0-9.8304 5.5296-16.9984 16.384-29.696a108.1344 108.1344 0 0 0 30.9248-65.7408c3.072-53.4528-52.0192-85.6064-58.1632-89.088a25.6 25.6 0 0 0-12.4928-3.2768z"  horiz-adv-x="1024" />

    
    <glyph glyph-name="icon-17" unicode="&#59144;" d="M942.08 655.36h-56.32V735.6416A87.04 87.04 0 0 1 798.72 822.6816H537.6V870.4a25.6 25.6 0 0 1-51.2 0v-47.7184H225.28a87.04 87.04 0 0 1-87.04-87.04v-80.2816H81.92a25.6 25.6 0 0 1 0-51.2h56.32v-583.68A148.6848 148.6848 0 0 1 286.72-128h450.56a148.6848 148.6848 0 0 1 148.48 148.48v583.68H942.08a25.6 25.6 0 0 1 0 51.2zM189.44 735.6416A35.84 35.84 0 0 0 225.28 771.4816h573.44a35.84 35.84 0 0 0 35.84-35.84v-80.2816H189.44z m645.12-715.1616A97.4848 97.4848 0 0 0 737.28-76.79999999999995H286.72a97.4848 97.4848 0 0 0-97.28 97.28v583.68h645.12zM399.36 99.32799999999997a25.6 25.6 0 0 1 25.6 25.6v286.72a25.6 25.6 0 1 1-51.2 0v-286.72a25.6 25.6 0 0 1 25.6-25.6zM624.64 99.32799999999997a25.6 25.6 0 0 1 25.6 25.6v286.72a25.6 25.6 0 1 1-51.2 0v-286.72a25.6 25.6 0 0 1 25.6-25.6z"  horiz-adv-x="1024" />

    
    <glyph glyph-name="icon-18" unicode="&#59145;" d="M984.4736 642.6623999999999l-152.9856 184.32A81.92 81.92 0 0 1 768.6144 855.04H255.3856A81.92 81.92 0 0 1 192.512 826.3679999999999l-152.9856-184.32A81.92 81.92 0 0 1 20.48 590.2336V35.84000000000003a122.88 122.88 0 0 1 122.88-122.88h737.28a122.88 122.88 0 0 1 122.88 122.88V590.2336a81.92 81.92 0 0 1-19.0464 52.4288zM231.8336 793.6a30.72 30.72 0 0 0 23.552 11.0592h513.2288a30.72 30.72 0 0 0 23.552-11.0592l143.36-171.8272H88.6784z m334.0288-223.0272v-607.232h-107.7248V570.5727999999999zM71.68 35.84000000000003V570.5727999999999h335.2576v-607.232H143.36A71.68 71.68 0 0 0 71.68 35.84000000000003zM880.64-36.659200000000055H617.0624V570.5727999999999H952.32V35.84000000000003a71.68 71.68 0 0 0-71.68-72.4992zM858.112 79.05280000000005h-78.6432a25.6 25.6 0 0 1 0-51.2h78.6432a25.6 25.6 0 1 1 0 51.2z"  horiz-adv-x="1024" />

    
    <glyph glyph-name="icon-19" unicode="&#59146;" d="M897.8432 668.2624000000001h-31.744V720.0768A107.7248 107.7248 0 0 1 757.76 827.5968H122.88A105.2672 105.2672 0 0 1 18.6368 722.3296v-633.4464a148.6848 148.6848 0 0 1 148.48-148.48h689.7664a148.6848 148.6848 0 0 1 148.48 148.48v471.04a107.7248 107.7248 0 0 1-107.52 108.3392zM122.88 776.3968h634.88a56.32 56.32 0 0 0 56.32-56.32v-51.6096H122.88a54.0672 54.0672 0 1 0 0 107.9296z m734.0032-784.7936H167.1168a97.4848 97.4848 0 0 0-97.28 97.28V632.0128a104.8576 104.8576 0 0 1 12.0832-6.3488h1.6384a104.2432 104.2432 0 0 1 15.9744-4.9152h4.7104a104.6528 104.6528 0 0 1 18.8416-1.8432h774.7584a56.32 56.32 0 0 0 56.32-56.32v-143.7696H747.52a105.2672 105.2672 0 0 1 0-210.3296h206.6432v-119.3984a97.4848 97.4848 0 0 0-97.28-97.4848z m97.28 376.0128v-107.9296H747.52a54.0672 54.0672 0 0 0 0 107.9296z"  horiz-adv-x="1024" />

    
    <glyph glyph-name="icon-20" unicode="&#59147;" d="M998.912 720.896a109.3632 109.3632 0 0 1-84.5824 39.936H203.8784l-3.072 20.48a109.1584 109.1584 0 0 1-108.3392 91.3408H25.7024a25.6 25.6 0 1 1 0-51.4048h66.7648A57.9584 57.9584 0 0 0 150.016 773.12l81.92-516.3008a109.1584 109.1584 0 0 1 108.3392-92.3648H807.0144a151.9616 151.9616 0 0 1 148.8896 122.88L1022.0544 629.76a109.3632 109.3632 0 0 1-23.1424 91.136z m-27.2384-80.896l-66.1504-343.8592a100.352 100.352 0 0 0-98.5088-81.92H340.6848a57.9584 57.9584 0 0 0-57.5488 49.152L212.0704 709.4272h702.464a58.368 58.368 0 0 0 57.344-69.2224zM379.8016 122.88a113.8688 113.8688 0 1 1 113.8688-113.8688 113.8688 113.8688 0 0 1-113.8688 113.8688z m0-176.3328a61.44 61.44 0 1 0 61.44 61.44 62.464 62.464 0 0 0-61.44-61.44zM791.8592 122.88a113.8688 113.8688 0 1 1 113.8688-113.8688 113.8688 113.8688 0 0 1-113.8688 113.8688z m0-176.3328a61.44 61.44 0 1 0 61.44 61.44 62.464 62.464 0 0 0-61.44-61.44zM774.2464 338.3296H401.7152a25.6 25.6 0 0 1 0-51.4048H774.2464a25.6 25.6 0 0 1 0 51.4048z"  horiz-adv-x="1024" />

    
    <glyph glyph-name="icon-21" unicode="&#59148;" d="M973.693156 512.927763L849.824261 841.948118A83.329984 83.329984 0 0 1 757.690371 894.771548L412.904884 836.624827a83.329984 83.329984 0 0 1-58.351464-40.948395L61.567653 288.94004099999995A124.892605 124.892605 0 0 1 107.429855 117.98049100000003l396.994692-228.90153A124.892605 124.892605 0 0 1 675.793581-65.26357800000005l292.781026 507.145875a83.329984 83.329984 0 0 1 5.118549 71.045466z m-50.161784-45.452719L630.750346-39.67083100000002a73.707111 73.707111 0 0 0-100.733052-26.616457L133.022602 162.614242a73.911853 73.911853 0 0 0-27.025941 100.733052L398.982429 770.493169a31.939748 31.939748 0 0 0 22.521618 15.56039l344.990229 58.351463h5.323292a32.349232 32.349232 0 0 0 30.09707-20.474198l123.868896-329.225097a31.939748 31.939748 0 0 0-2.252162-27.230683zM699.134166 684.706281a116.293442 116.293442 0 1 1 42.586331-158.879774 115.679217 115.679217 0 0 1-42.586331 158.879774z m-1.842678-133.287027A65.107948 65.107948 0 0 0 608.433471 527.4644430000001a65.107948 65.107948 0 0 0-23.750069 88.858018 65.107948 65.107948 0 0 0 88.858017 23.750069 65.107948 65.107948 0 0 0 23.750069-88.858018zM497.258578 85.01703299999997L280.846309 210.11437999999998a25.592747 25.592747 0 1 1-25.592747-44.224267L471.051605 40.79276600000003a25.592747 25.592747 0 0 1 25.592747 44.224267z"  horiz-adv-x="1024" />

    
    <glyph glyph-name="icon-22" unicode="&#59149;" d="M698.9824 707.5840000000001V734.6176a81.92 81.92 0 0 1-81.92 81.92h-532.48a81.92 81.92 0 0 1-81.92-81.92v-409.6a81.92 81.92 0 0 1 81.92-81.92h5.12v-110.1824a107.7248 107.7248 0 0 1 107.52-107.3152h29.2864a132.9152 132.9152 0 0 1 250.6752 38.2976H634.88a132.9152 132.9152 0 0 1 262.7584 0h16.9984a107.7248 107.7248 0 0 1 107.52 107.52v184.32A353.6896 353.6896 0 0 1 698.9824 707.5840000000001z m259.072-267.4688h-136.192V615.424a303.104 303.104 0 0 0 136.192-175.3088zM53.8624 325.0176v409.6a31.1296 31.1296 0 0 0 30.72 30.72h532.48a31.1296 31.1296 0 0 0 30.72-30.72v-409.6a31.1296 31.1296 0 0 0-30.72-30.72h-532.48a31.1296 31.1296 0 0 0-30.72 30.72z m291.84-322.56a81.92 81.92 0 1 0 81.92 81.92 81.92 81.92 0 0 0-81.92-81.92z m419.84 0a81.92 81.92 0 1 0 81.92 81.92 81.92 81.92 0 0 0-81.92-81.92z m204.8 168.96a56.32 56.32 0 0 0-56.32-56.32h-19.0464a132.9152 132.9152 0 0 1-258.8672 0h-161.1776a133.12 133.12 0 0 1-262.5536-30.72v-7.7824h-15.1552a56.32 56.32 0 0 0-56.32 56.32v110.1824h476.16a81.92 81.92 0 0 1 81.92 81.92V656.384a298.8032 298.8032 0 0 0 71.68-16.7936v-225.28a25.6 25.6 0 0 1 25.6-25.6h172.2368a303.3088 303.3088 0 0 0 1.8432-33.1776z"  horiz-adv-x="1024" />

    
    <glyph glyph-name="icon-23" unicode="&#59150;" d="M747.3152 607.232a25.6 25.6 0 0 1 17.6128-31.5392l151.552-43.008a25.1904 25.1904 0 0 1 6.9632 0 25.6 25.6 0 0 1 24.576 18.6368l43.008 151.552A25.6 25.6 0 0 1 942.08 715.7760000000001l-24.7808-87.4496A476.16 476.16 0 1 1 962.56 243.712a25.6 25.6 0 1 1-48.9472 15.1552 425.1648 425.1648 0 1 0-38.7072 338.7392L778.24 624.8448000000001a25.6 25.6 0 0 1-30.9248-17.6128zM668.4672 627.3024a25.6 25.6 0 0 1-36.2496 0l-124.1088-124.1088-124.1088 124.1088A25.6 25.6 0 0 1 348.16 591.2576l106.2912-106.2912H368.64a25.6 25.6 0 1 1 0-51.2h113.0496v-84.1728H368.64a25.6 25.6 0 0 1 0-51.2h113.0496V117.75999999999999a25.6 25.6 0 0 1 51.2 0v180.6336h113.0496a25.6 25.6 0 0 1 0 51.2h-112.2304v84.1728h113.0496a25.6 25.6 0 0 1 0 51.2h-84.5824l106.2912 106.2912a25.6 25.6 0 0 1 0 36.0448z"  horiz-adv-x="1024" />

    
    <glyph glyph-name="icon-24" unicode="&#59151;" d="M802.551114 302.113932l43.613381 52.827476a25.594707 25.594707 0 0 1-39.518228 32.761225l-33.785013-40.951532-33.17074 49.551353c16.994885 20.475766 33.785013 39.31347 49.75611 58.765448C981.09979 686.034538 1042.117572 825.474501 975.980849 880.144796s-191.448408-31.737437-383.101575-263.932619c-15.971097-19.451977-32.146952-39.518228-48.118049-59.993993l-54.875052 23.137615 33.785013 40.951531a25.594707 25.594707 0 1 1-39.518227 32.761225l-43.818139-52.827475-238.337911 100.331251a149.063574 149.063574 0 0 1-173.83925-42.79435 25.594707 25.594707 0 0 1 6.142729-38.084924l381.053998-236.904608c-35.627832-50.779899-69.00333-100.945524-97.874159-147.425512-11.671186-18.837704-21.704312-35.83259-31.123164-51.803687l-160.325245 42.589592a33.17074 33.17074 0 0 1-38.494439-9.418852l-5.528457-6.96176a8.395064 8.395064 0 0 1 2.047577-12.28546l157.868153-98.078917c-37.675409-81.903062-29.280345-108.521558-11.671187-122.854594a38.699197 38.699197 0 0 1 25.799465-9.418852c18.837704 0 47.094261 11.056913 92.755218 44.022896l126.130716-136.368599a8.395064 8.395064 0 0 1 12.490217 0l5.733215 6.757003a33.17074 33.17074 0 0 1 2.047576 39.722985l-70.436634 150.701635q20.475766 17.609158 43.408624 39.108712c40.951531 37.061136 83.131608 79.445971 126.130716 124.08314l304.474634-328.840796a25.594707 25.594707 0 0 1 18.837705-8.190306 25.594707 25.594707 0 0 1 19.042462 9.214094 150.906393 150.906393 0 0 1 9.009337 178.753434zM90.403986 645.287764a97.87416 97.87416 0 0 0 91.73143 7.985549L512 514.447622c-22.7281-29.485102-45.046684-59.584478-66.750996-89.683854zM266.290813 20.572154999999952c10.033125 67.365269 172.610704 328.636038 365.901931 562.878797S902.677608 843.697933 930.524649 843.697933a20.475766 20.475766 0 0 0 12.694975-3.276123c2.457092-2.047577 55.89884-52.008445-193.291228-354.025987C556.432411 252.35782200000006 330.584717 43.09549700000002 266.290813 20.572154999999952z m646.829435-54.260779l-283.794111 307.136485c25.389949 27.028011 50.575141 54.670294 75.350817 81.903062l199.024442-297.717632a99.307463 99.307463 0 0 0 9.418852-91.321915z"  horiz-adv-x="1024" />

    
    <glyph glyph-name="icon-25" unicode="&#59152;" d="M874.9056 745.0624a348.16 348.16 0 0 1-512-471.04l-85.6064-85.6064-125.1328 125.5424a25.6 25.6 0 1 1-36.2496-36.2496l125.952-125.952-187.1872-187.1872a25.6 25.6 0 1 1 36.2496-36.2496l187.1872 187.1872 125.952-125.952a25.6 25.6 0 1 1 36.2496 36.2496l-125.952 125.952 85.4016 85.4016a348.16 348.16 0 0 1 475.136 507.904zM839.68 288.9728a296.96 296.96 0 1 0 0 419.84 295.1168 295.1168 0 0 0 0-419.84z"  horiz-adv-x="1024" />

    
    <glyph glyph-name="icon-26" unicode="&#59153;" d="M804.4544 544.3584000000001h-59.1872v110.592a233.2672 233.2672 0 0 1-466.5344 0v-110.7968h-59.1872a122.88 122.88 0 0 1-122.88-122.88v-418.816a122.88 122.88 0 0 1 122.88-122.88h584.9088a122.88 122.88 0 0 1 122.88 122.88V421.4784a122.88 122.88 0 0 1-122.88 122.88z m-474.5216 110.592a182.0672 182.0672 0 0 0 364.1344 0v-110.7968H329.9328z m546.2016-652.4928a71.68 71.68 0 0 0-71.68-71.68H219.5456a71.68 71.68 0 0 0-71.68 71.68V421.4784a71.68 71.68 0 0 0 71.68 71.68h584.9088a71.68 71.68 0 0 0 71.68-71.68zM512 215.44960000000003a57.5488 57.5488 0 0 1-23.9616-109.9776v-73.9328A23.7568 23.7568 0 0 1 512 7.782400000000052a23.7568 23.7568 0 0 1 23.7568 23.7568v73.728A57.5488 57.5488 0 0 1 512 215.44960000000003z"  horiz-adv-x="1024" />

    
    <glyph glyph-name="icon-27" unicode="&#59154;" d="M944.9472 840.704H666.624a25.6 25.6 0 1 1 0-51.2h216.4736L630.9888 537.1904a351.0272 351.0272 0 1 1 35.84-36.4544L919.3472 752.64v-215.8592a25.6 25.6 0 0 1 51.2 0V814.08a25.6 25.6 0 0 1-25.6 26.624zM478.4128-11.26400000000001a296.96 296.96 0 1 0 209.92 363.52A297.7792 297.7792 0 0 0 478.4128-11.26400000000001z"  horiz-adv-x="1024" />

    
    <glyph glyph-name="icon-28" unicode="&#59155;" d="M870.4 778.24h-716.8A148.6848 148.6848 0 0 1 5.12 629.76v-122.88a25.6 25.6 0 0 1 51.2 0v122.88A97.4848 97.4848 0 0 0 153.6 727.04h716.8A97.4848 97.4848 0 0 0 967.68 629.76v-122.88a25.6 25.6 0 0 1 51.2 0v122.88a148.6848 148.6848 0 0 1-148.48 148.48zM993.28 286.72A25.6 25.6 0 0 1 967.68 261.12v-122.88a97.4848 97.4848 0 0 0-97.28-97.28h-716.8A97.4848 97.4848 0 0 0 56.32 138.24v122.88a25.6 25.6 0 0 1-51.2 0v-122.88a148.6848 148.6848 0 0 1 148.48-148.48h716.8A148.6848 148.6848 0 0 1 1018.88 138.24v122.88a25.6 25.6 0 0 1-25.6 25.6zM271.36 240.64V527.36a25.6 25.6 0 0 1-51.2 0v-286.72a25.6 25.6 0 0 1 51.2 0zM537.6 240.64V527.36a25.6 25.6 0 0 1-51.2 0v-286.72a25.6 25.6 0 0 1 51.2 0zM803.84 240.64V527.36a25.6 25.6 0 0 1-51.2 0v-286.72a25.6 25.6 0 0 1 51.2 0z"  horiz-adv-x="1024" />

    
    <glyph glyph-name="icon-29" unicode="&#59156;" d="M983.207322 793.6a146.6368 146.6368 0 0 1-107.7248 46.4896H491.687322a148.0704 148.0704 0 0 1-147.6608-138.24L297.127322 205.00480000000005a168.5504 168.5504 0 1 1 39.936-113.4592v2.048l44.6464 464.0768h578.56l-34.2016-352.0512a168.5504 168.5504 0 1 1 40.96-113.0496v1.024L1024.167322 683.4176A146.6368 146.6368 0 0 1 983.207322 793.6zM168.717722-21.29920000000004A117.5552 117.5552 0 1 0 286.887322 96.0512a117.5552 117.5552 0 0 0-118.1696-117.3504zM387.239322 609.28l8.6016 89.4976A97.0752 97.0752 0 0 0 491.687322 789.2992h384.4096a97.0752 97.0752 0 0 0 96.8704-102.4L965.389722 609.28zM798.887322-21.09439999999995A117.5552 117.5552 0 1 0 915.418522 97.27999999999997 117.5552 117.5552 0 0 0 798.887322-21.09439999999995z"  horiz-adv-x="1024" />

    
    <glyph glyph-name="icon-30" unicode="&#59157;" d="M901.12 762.88h-166.2976v61.44a25.6 25.6 0 0 1-51.2 0v-61.44H340.5824v61.44a25.6 25.6 0 0 1-51.2 0v-61.44H122.88a122.88 122.88 0 0 1-122.88-122.88v-573.44a122.88 122.88 0 0 1 122.88-122.88h778.24a122.88 122.88 0 0 1 122.88 122.88v573.44a122.88 122.88 0 0 1-122.88 122.88zM122.88 711.6800000000001h166.5024v-40.96a25.6 25.6 0 0 1 51.2 0V711.6800000000001h343.04v-40.96a25.6 25.6 0 0 1 51.2 0V711.6800000000001H901.12a71.68 71.68 0 0 0 71.68-71.68v-105.0624h-921.6V640A71.68 71.68 0 0 0 122.88 711.6800000000001z m778.24-716.8H122.88a71.68 71.68 0 0 0-71.68 71.68V483.7376h921.6V66.55999999999995A71.68 71.68 0 0 0 901.12-5.1200000000000045zM322.56 371.09760000000006h-112.64a25.6 25.6 0 0 1 0-51.2h112.64a25.6 25.6 0 0 1 0 51.2zM568.32 371.09760000000006h-112.64a25.6 25.6 0 0 1 0-51.2h112.64a25.6 25.6 0 0 1 0 51.2zM814.08 371.09760000000006h-112.64a25.6 25.6 0 0 1 0-51.2h112.64a25.6 25.6 0 0 1 0 51.2zM322.56 207.25760000000002h-112.64a25.6 25.6 0 0 1 0-51.2h112.64a25.6 25.6 0 0 1 0 51.2zM568.32 207.25760000000002h-112.64a25.6 25.6 0 0 1 0-51.2h112.64a25.6 25.6 0 0 1 0 51.2zM814.08 207.25760000000002h-112.64a25.6 25.6 0 0 1 0-51.2h112.64a25.6 25.6 0 0 1 0 51.2z"  horiz-adv-x="1024" />

    
    <glyph glyph-name="icon-31" unicode="&#59158;" d="M1013.76 311.9104a230.8096 230.8096 0 0 1-128 206.6432 373.76 373.76 0 0 1-747.3152 0 230.8096 230.8096 0 0 1 80.0768-436.4288h2.048a20.48 20.48 0 0 1 20.48 20.48V521.216a20.48 20.48 0 0 1-20.48 20.48h-2.048a229.1712 229.1712 0 0 1-28.0576-4.7104 322.1504 322.1504 0 0 0 643.072 0 229.376 229.376 0 0 1-28.0576 4.7104h-2.048a20.48 20.48 0 0 1-20.48-20.48v-418.6112a20.48 20.48 0 0 1 20.48-20.48h2.048a229.376 229.376 0 0 1 26.0096 4.096 191.2832 191.2832 0 0 0-188.0064-158.1056h-126.3616a25.6 25.6 0 0 1 0-51.2h126.3616a242.4832 242.4832 0 0 1 241.664 227.7376 230.8096 230.8096 0 0 1 128.6144 207.2576zM189.8496 139.67359999999996a179.8144 179.8144 0 0 0 0 344.6784z m644.3008 0V484.1472a179.8144 179.8144 0 0 0 0-344.6784z"  horiz-adv-x="1024" />

    
    <glyph glyph-name="icon-32" unicode="&#59159;" d="M512 896v-51.185914a346.016776 346.016776 0 0 0 261.252903-118.137088 378.775761 378.775761 0 0 0 92.953619-295.035607c-28.664112-250.810977-243.849693-434.670779-334.960618-501.826697a31.735266 31.735266 0 0 0-37.672833 0c-102.371827 75.140921-338.236517 279.884576-338.236517 558.131202A357.891908 357.891908 0 0 0 509.543076 844.814086H512V896h-3.071155A408.258847 408.258847 0 0 1 104.15064 487.741153c0-301.382659 250.40149-519.025164 358.915627-599.284677a81.897462 81.897462 0 0 1 98.481697 0c101.143365 74.731434 324.723436 268.214187 355.434985 536.633119C945.237573 672.010442 759.535078 896 512 896zM325.273787 504.734876A187.1357 187.1357 0 1 1 512 691.256345a187.1357 187.1357 0 0 1-186.726213-186.521469zM512 640.684663a135.949787 135.949787 0 1 0-135.949787-135.949787A136.15453 136.15453 0 0 0 512 640.684663z"  horiz-adv-x="1024" />

    
    <glyph glyph-name="icon-33" unicode="&#59160;" d="M901.12 793.6H122.88a122.88 122.88 0 0 1-122.88-122.88v-573.44a122.88 122.88 0 0 1 122.88-122.88h778.24a122.88 122.88 0 0 1 122.88 122.88V670.72a122.88 122.88 0 0 1-122.88 122.88zM182.272 25.600000000000023a163.84 163.84 0 0 0 326.4512 0zM972.8 97.27999999999997a71.68 71.68 0 0 0-71.68-71.68H559.9232a214.8352 214.8352 0 0 1-428.8512 0H122.88A71.68 71.68 0 0 0 51.2 97.27999999999997V670.72A71.68 71.68 0 0 0 122.88 742.4h778.24a71.68 71.68 0 0 0 71.68-71.68zM345.4976 658.2272a189.44 189.44 0 1 1 189.44-189.44 189.44 189.44 0 0 1-189.44 189.44z m0-327.68a138.24 138.24 0 1 0 138.24 138.24 138.4448 138.4448 0 0 0-138.24-138.24zM865.28 471.04h-197.0176a25.6 25.6 0 1 1 0-51.2h197.2224a25.6 25.6 0 0 1 0 51.2zM865.28 307.20000000000005h-197.0176a25.6 25.6 0 1 1 0-51.2h197.2224a25.6 25.6 0 0 1 0 51.2z"  horiz-adv-x="1024" />

    
    <glyph glyph-name="icon-34" unicode="&#59161;" d="M314.1632-25.600000000000023H168.3456a97.4848 97.4848 0 0 0-97.28 97.28v655.36a97.4848 97.4848 0 0 0 97.28 97.8944h655.36A97.4848 97.4848 0 0 0 921.6 727.6544v-135.7824a25.6 25.6 0 0 1 51.2 0V727.6544A148.6848 148.6848 0 0 1 823.7056 875.52h-655.36A148.6848 148.6848 0 0 1 20.48 727.6544v-655.36a148.6848 148.6848 0 0 1 148.48-148.48h146.0224a25.6 25.6 0 0 1 0 51.2zM996.7616-64.51199999999994l-175.7184 175.7184a343.04 343.04 0 1 1-36.2496-36.2496l175.7184-175.7184a25.6 25.6 0 0 1 36.2496 36.2496z m-641.024 192.9216a291.2256 291.2256 0 1 0 205.824-85.1968 291.4304 291.4304 0 0 0-205.824 85.1968z"  horiz-adv-x="1024" />

    
    <glyph glyph-name="icon-35" unicode="&#59162;" d="M988.3648-56.11519999999996L770.4576 161.79200000000003a425.984 425.984 0 1 1-36.2496-36.2496l217.9072-217.9072a25.6 25.6 0 1 1 36.2496 36.2496zM188.8256 179.20000000000005a373.5552 373.5552 0 1 0 264.192-109.3632A373.9648 373.9648 0 0 0 188.8256 179.20000000000005z"  horiz-adv-x="1024" />

    
    <glyph glyph-name="icon-36" unicode="&#59163;" d="M870.4 755.9168h-55.0912V824.3199999999999A66.56 66.56 0 0 1 748.7488 890.88h-471.04a66.56 66.56 0 0 1-66.56-66.56v-68.4032H153.6a148.6848 148.6848 0 0 1-148.48-148.48v-409.6a107.7248 107.7248 0 0 1 107.52-107.52h93.3888V-87.03999999999996a40.96 40.96 0 0 1 40.96-40.96h532.48a40.96 40.96 0 0 1 40.96 40.96v177.3568h90.9312a107.7248 107.7248 0 0 1 107.52 107.52v409.6a148.6848 148.6848 0 0 1-148.48 148.48zM262.3488 824.3199999999999a15.36 15.36 0 0 0 15.36 15.36h471.04a15.36 15.36 0 0 0 15.36-15.36v-68.4032h-501.76z m506.88-901.12h-512v266.24h512z m198.4512 274.6368a56.32 56.32 0 0 0-56.32-56.32h-90.9312V199.67999999999995a40.96 40.96 0 0 1-40.96 40.96h-532.48a40.96 40.96 0 0 1-40.96-40.96v-58.1632H112.64a56.32 56.32 0 0 0-56.32 56.32v409.6A97.4848 97.4848 0 0 0 153.6 704.7168h716.8a97.4848 97.4848 0 0 0 97.28-97.28zM285.4912 606.6176h-122.88a25.6 25.6 0 0 1 0-51.2h122.88a25.6 25.6 0 0 1 0 51.2z"  horiz-adv-x="1024" />

    
    <glyph glyph-name="icon-37" unicode="&#59164;" d="M860.16 855.04H163.84a122.88 122.88 0 0 1-122.88-122.88v-696.32a122.88 122.88 0 0 1 122.88-122.88h696.32a122.88 122.88 0 0 1 122.88 122.88V732.16a122.88 122.88 0 0 1-122.88 122.88zM252.5184 803.84h518.9632v-261.9392a18.0224 18.0224 0 0 0-18.0224-18.0224H270.5408a18.0224 18.0224 0 0 0-18.0224 18.0224zM931.84 35.84000000000003a71.68 71.68 0 0 0-71.68-71.68H163.84A71.68 71.68 0 0 0 92.16 35.84000000000003V732.16A71.68 71.68 0 0 0 163.84 803.84h37.4784v-261.9392a69.2224 69.2224 0 0 1 69.2224-69.2224h482.9184a69.2224 69.2224 0 0 1 69.2224 69.2224V803.84H860.16A71.68 71.68 0 0 0 931.84 732.16zM757.76 138.24H266.24a25.6 25.6 0 0 1 0-51.2h491.52a25.6 25.6 0 0 1 0 51.2z"  horiz-adv-x="1024" />

    
    <glyph glyph-name="icon-38" unicode="&#59165;" d="M512 855.04a471.04 471.04 0 1 1 471.04-471.04A471.04 471.04 0 0 1 512 855.04z m0-890.88A419.84 419.84 0 1 0 931.84 384 420.2496 420.2496 0 0 0 512-35.84000000000003zM535.9616 394.24V715.1616a25.6 25.6 0 1 1-51.2 0v-334.6432a25.6 25.6 0 0 1 11.264-20.48L737.28 195.58399999999995a25.6 25.6 0 0 1 28.672 42.3936z"  horiz-adv-x="1024" />

    
    <glyph glyph-name="icon-39" unicode="&#59166;" d="M288.360323 318.26416900000004A25.59978 25.59978 0 0 1 252.315833 281.605284l43.00763-43.00763a25.59978 25.59978 0 1 1 36.249289 36.249288zM403.252135 203.57715499999995a25.59978 25.59978 0 0 1-36.249288-36.249288l43.00763-43.007631a25.59978 25.59978 0 1 1 36.249288 36.249289zM1012.117299 510.774513l-116.3254 116.3254a20.479824 20.479824 0 0 1-14.131078 5.73435 21.913412 21.913412 0 0 1-11.878298-3.686368A81.919295 81.919295 0 0 0 757.757886 741.786926a20.479824 20.479824 0 0 1-2.25278 26.009377L638.77011 884.121702a40.959648 40.959648 0 0 1-57.343507 0L35.639297 338.53919399999995a122.878943 122.878943 0 0 1 0-172.235319l258.455377-258.660175a121.854952 121.854952 0 0 1 172.235319 0l545.787306 545.787306a40.959648 40.959648 0 0 1 0 57.343507z m-465.506397-450.556125l-28.466955 28.466955a25.59978 25.59978 0 0 1-36.249288-36.249288l28.466955-28.466956L430.080705-56.107012000000054a70.655392 70.655392 0 0 0-99.941541 0L71.888585 202.34836499999994a70.655392 70.655392 0 0 0 0 99.941541l80.076111 80.076111 28.466955-28.466955a25.59978 25.59978 0 1 1 36.249289 36.249288l-28.466955 28.466956 421.884371 421.884371 92.773603-92.773602a133.118855 133.118855 0 0 1 28.876551-143.358767 132.50446 132.50446 0 0 1 143.358767-28.876552l92.773602-92.773602z"  horiz-adv-x="1024" />

    
    <glyph glyph-name="icon-40" unicode="&#59167;" d="M901.12 793.6H122.88a122.88 122.88 0 0 1-122.88-122.88v-573.44a122.88 122.88 0 0 1 122.88-122.88h778.24a122.88 122.88 0 0 1 122.88 122.88V670.72a122.88 122.88 0 0 1-122.88 122.88zM122.88 742.4h778.24a71.68 71.68 0 0 0 71.68-71.68v-83.5584h-921.6V670.72A71.68 71.68 0 0 0 122.88 742.4z m778.24-716.8H122.88A71.68 71.68 0 0 0 51.2 97.27999999999997V535.9616h921.6V97.27999999999997a71.68 71.68 0 0 0-71.68-71.68zM229.5808 228.35199999999998a25.6 25.6 0 0 1-35.0208-9.4208l-40.96-70.8608a25.6 25.6 0 1 1 44.2368-25.6l40.96 70.8608a25.6 25.6 0 0 1-9.216 35.0208zM372.9408 228.35199999999998a25.6 25.6 0 0 1-35.0208-9.4208l-40.96-70.8608a25.6 25.6 0 1 1 44.2368-25.6l40.96 70.8608a25.6 25.6 0 0 1-9.216 35.0208z"  horiz-adv-x="1024" />

    
    <glyph glyph-name="icon-41" unicode="&#59168;" d="M819.2 896H204.8a81.92 81.92 0 0 1-81.92-81.92v-860.16a81.92 81.92 0 0 1 81.92-81.92h614.4a81.92 81.92 0 0 1 81.92 81.92V814.08a81.92 81.92 0 0 1-81.92 81.92zM204.8 844.8h614.4A31.1296 31.1296 0 0 0 849.92 814.08v-229.7856a709.4272 709.4272 0 0 0-197.0176-66.7648 148.2752 148.2752 0 0 1-282.0096 0 711.0656 711.0656 0 0 0-196.8128 65.3312V814.08A31.1296 31.1296 0 0 0 204.8 844.8z m404.48-373.76A97.28 97.28 0 1 0 512 568.3199999999999a97.4848 97.4848 0 0 0 97.28-97.28zM819.2-76.79999999999995H204.8A31.1296 31.1296 0 0 0 174.08-46.08000000000004V525.9264000000001A767.7952 767.7952 0 0 1 363.7248 465.92a148.2752 148.2752 0 0 1 296.5504 0 766.1568 766.1568 0 0 1 189.6448 61.44v-573.44a31.1296 31.1296 0 0 0-30.72-30.72z"  horiz-adv-x="1024" />

    
    <glyph glyph-name="icon-42" unicode="&#59169;" d="M755.5072 770.8672A214.2208 214.2208 0 0 0 905.216 711.6800000000001a220.5696 220.5696 0 0 0 2.8672-314.7776L512 0.4095999999999549 115.712 396.4928A220.5696 220.5696 0 0 0 118.784 711.6800000000001a214.2208 214.2208 0 0 0 149.7088 59.392 235.9296 235.9296 0 0 0 165.6832-69.0176l40.96-40.96a51.2 51.2 0 0 1 72.4992 0l40.96 40.96a235.9296 235.9296 0 0 0 165.6832 68.8128m0 51.2A286.72 286.72 0 0 1 552.96 738.304l-40.96-40.96-40.96 40.96a286.72 286.72 0 0 1-201.728 83.7632 265.0112 265.0112 0 0 1-184.32-73.728 271.7696 271.7696 0 0 1-3.6864-387.8912L481.28-41.36959999999999a43.6224 43.6224 0 0 1 61.44 0l401.6128 401.6128a271.7696 271.7696 0 0 1-3.6864 387.8912 265.0112 265.0112 0 0 1-184.32 73.728z"  horiz-adv-x="1024" />

    
    <glyph glyph-name="icon-43" unicode="&#59170;" d="M940.8512 748.1344A277.7088 277.7088 0 0 1 552.96 738.304l-40.96-40.96-40.96 40.96a277.7088 277.7088 0 0 1-387.072 10.0352 271.7696 271.7696 0 0 1-3.6864-387.8912L481.28-41.36959999999999a43.6224 43.6224 0 0 1 61.44 0l401.6128 401.6128a271.7696 271.7696 0 0 1-3.4816 387.8912z"  horiz-adv-x="1024" />

    
    <glyph glyph-name="icon-44" unicode="&#59171;" d="M812.463309-104.2432a26.0096 26.0096 0 0 0-12.0832 3.072L512.021709 50.3808l-288.3584-151.552a25.8048 25.8048 0 0 0-37.4784 27.2384l55.0912 321.1264L7.804109 474.7264a25.8048 25.8048 0 0 0 14.336 44.032l322.56 46.8992 143.36 292.2496a25.8048 25.8048 0 0 0 46.2848 0l143.36-292.2496 322.56-46.8992a25.8048 25.8048 0 0 0 14.336-44.032L782.972109 247.1936l55.0912-321.1264a25.8048 25.8048 0 0 0-25.3952-30.3104zM512.021709 105.472a25.8048 25.8048 0 0 0 12.0832-3.072L778.261709-31.1296l-48.7424 283.0336a25.8048 25.8048 0 0 0 7.7824 22.7328l204.8 200.2944-284.0576 40.96a26.0096 26.0096 0 0 0-20.48 14.1312L512.021709 787.8656l-126.976-257.4336a26.0096 26.0096 0 0 0-20.48-14.1312L81.941709 475.136l204.8-200.2944a25.8048 25.8048 0 0 0 7.3728-22.9376L245.781709-31.1296l254.1568 133.5296a25.8048 25.8048 0 0 0 12.0832 3.072z"  horiz-adv-x="1024" />

    
    <glyph glyph-name="icon-45" unicode="&#59172;" d="M133.12 445.44a61.44 61.44 0 1 0-61.44-61.44 61.44 61.44 0 0 0 61.44 61.44m0 51.2A112.64 112.64 0 1 1 245.76 384a112.64 112.64 0 0 1-112.64 112.64zM512 445.44a61.44 61.44 0 1 0-61.44-61.44 61.44 61.44 0 0 0 61.44 61.44m0 51.2a112.64 112.64 0 1 1 112.64-112.64 112.64 112.64 0 0 1-112.64 112.64zM890.88 445.44a61.44 61.44 0 1 0-61.44-61.44 61.44 61.44 0 0 0 61.44 61.44m0 51.2A112.64 112.64 0 1 1 1003.52 384a112.64 112.64 0 0 1-112.64 112.64z"  horiz-adv-x="1024" />

    
    <glyph glyph-name="icon-46" unicode="&#59173;" d="M812.463309-104.2432a26.0096 26.0096 0 0 0-12.0832 3.072L512.021709 50.3808l-288.3584-151.552a25.8048 25.8048 0 0 0-37.4784 27.2384l55.0912 321.1264L7.804109 474.7264a25.8048 25.8048 0 0 0 14.336 44.032l322.56 46.8992 143.36 292.2496a25.8048 25.8048 0 0 0 46.2848 0l143.36-292.2496 322.56-46.8992a25.8048 25.8048 0 0 0 14.336-44.032L782.972109 247.1936l55.0912-321.1264a25.8048 25.8048 0 0 0-25.3952-30.3104z"  horiz-adv-x="1024" />

    
    <glyph glyph-name="icon-47" unicode="&#59174;" d="M133.12 384m-112.64 0a112.64 112.64 0 1 1 225.28 0 112.64 112.64 0 1 1-225.28 0ZM512 384m-112.64 0a112.64 112.64 0 1 1 225.28 0 112.64 112.64 0 1 1-225.28 0ZM890.88 384m-112.64 0a112.64 112.64 0 1 1 225.28 0 112.64 112.64 0 1 1-225.28 0Z"  horiz-adv-x="1024" />

    
    <glyph glyph-name="icon-48" unicode="&#59175;" d="M196.610443 840.498968l158.105094-158.105094-55.295823-129.023587a51.199836 51.199836 0 0 1 10.854365-56.31982l314.981392-314.981392a51.199836 51.199836 0 0 1 56.31982-10.854365l129.023587 55.295823 158.105094-158.105094-182.885815-130.661982a78.642948 78.642948 0 0 0-102.399672 8.396773L74.345234 556.237478a78.438149 78.438149 0 0 0-8.396773 102.399672l130.457183 181.861818M195.586446 895.99959a43.212662 43.212662 0 0 1-35.430286-18.227141l-135.986765-190.463391a129.842785 129.842785 0 0 1 13.926355-167.321064l609.892448-609.892449a129.842785 129.842785 0 0 1 167.321065-13.926355l190.463391 135.986765a43.212662 43.212662 0 0 1 5.529582 65.126191l-168.345061 168.345062a43.212662 43.212662 0 0 1-47.718248 9.21597l-133.733972-57.343816L346.318764 533.50475l57.343816 133.733972a43.212662 43.212662 0 0 1-9.21597 47.718248L225.282351 883.302031A43.007862 43.007862 0 0 1 195.586446 895.99959z"  horiz-adv-x="1024" />

    
    <glyph glyph-name="icon-49" unicode="&#59176;" d="M661.505015 218.318698L346.318698 533.505015l57.343839 133.734026a43.212679 43.212679 0 0 1-9.215974 47.718266L225.282236 883.302436a43.212679 43.212679 0 0 1-65.126217-5.529585l-135.986819-190.463467a129.842836 129.842836 0 0 1 13.926361-167.321131l609.892692-609.892692a129.842836 129.842836 0 0 1 167.321131-13.926361l190.463467 135.986819a43.212679 43.212679 0 0 1 5.529585 65.126217l-168.345129 168.345129a43.212679 43.212679 0 0 1-47.718266 9.215974zM808.960602 433.562895a25.599928 25.599928 0 0 0-25.599928 25.599928 196.40265 196.40265 0 0 1-196.197851 196.197851 25.599928 25.599928 0 0 0 0 51.199856 247.807306 247.807306 0 0 0 247.397707-247.397707 25.599928 25.599928 0 0 0-25.599928-25.599928zM983.040115 433.562895a25.599928 25.599928 0 0 0-25.599929 25.599928A370.686962 370.686962 0 0 1 587.162823 829.440186a25.599928 25.599928 0 0 0 0 51.199857 422.091618 422.091618 0 0 0 421.47722-421.47722A25.599928 25.599928 0 0 0 983.040115 433.562895z"  horiz-adv-x="1024" />

    
    <glyph glyph-name="icon-50" unicode="&#59177;" d="M512 824.32A440.32 440.32 0 1 0 71.68 384 440.7296 440.7296 0 0 0 512 824.32M512 875.52a491.52 491.52 0 1 1 491.52-491.52A491.52 491.52 0 0 1 512 875.52zM512 115.5072m-40.7552 0a40.7552 40.7552 0 1 1 81.5104 0 40.7552 40.7552 0 1 1-81.5104 0ZM577.1264 328.2944a48.128 48.128 0 0 1-31.5392-44.8512v-52.8384a33.5872 33.5872 0 1 0-66.9696 0V283.648A115.3024 115.3024 0 0 0 552.96 391.168a121.2416 121.2416 0 0 1-68.4032 232.0384 120.2176 120.2176 0 0 1-91.9552-91.9552 123.904 123.904 0 0 1 1.8432-59.1872 33.5872 33.5872 0 0 0-64.512-18.0224 190.2592 190.2592 0 0 0-2.2528 90.9312 188.2112 188.2112 0 1 0 249.4464-216.6784z"  horiz-adv-x="1024" />

    
    <glyph glyph-name="icon-51" unicode="&#59178;" d="M512 824.32A440.32 440.32 0 1 0 71.68 384 440.7296 440.7296 0 0 0 512 824.32M512 875.52a491.52 491.52 0 1 1 491.52-491.52A491.52 491.52 0 0 1 512 875.52zM512 118.9888m-52.4288 0a52.4288 52.4288 0 1 1 104.8576 0 52.4288 52.4288 0 1 1-104.8576 0ZM614.4 570.7776l-91.5456-359.6288a11.264 11.264 0 0 0-21.7088 0L409.6 570.7776a105.8816 105.8816 0 1 0 204.8 0z"  horiz-adv-x="1024" />

    
    <glyph glyph-name="icon-52" unicode="&#59179;" d="M512 824.32A440.32 440.32 0 1 0 71.68 384 440.7296 440.7296 0 0 0 512 824.32M512 875.52a491.52 491.52 0 1 1 491.52-491.52A491.52 491.52 0 0 1 512 875.52zM435.2 176.5376a25.6 25.6 0 0 0-18.0224 7.5776L207.2576 394.0352a25.6 25.6 0 0 0 36.2496 36.2496l191.6928-191.6928 345.4976 345.2928A25.6 25.6 0 0 0 816.7424 547.84L453.2224 184.1152a25.6 25.6 0 0 0-18.0224-7.5776z"  horiz-adv-x="1024" />

    
    <glyph glyph-name="icon-53" unicode="&#59180;" d="M512 875.52a491.52 491.52 0 1 1 491.52-491.52A491.52 491.52 0 0 1 512 875.52z m0-931.84A440.32 440.32 0 1 0 952.32 384 440.7296 440.7296 0 0 0 512-56.32zM611.9424 187.392c-8.8064-6.5536-70.4512-70.656-97.0752-71.0656-7.9872 0-11.8784 6.3488-11.8784 18.8416q0 37.888 61.44 247.3984a858.9312 858.9312 0 0 1 37.888 141.9264 24.7808 24.7808 0 0 1-8.3968 20.48 49.7664 49.7664 0 0 1-29.4912 6.5536c-54.4768 0-117.76-37.888-186.9824-114.688-20.48-22.9376 14.1312-31.1296 26.0096-20.48C409.6 423.3216 471.04 486.4 491.52 486.4c9.4208 0 14.1312-4.3008 14.1312-13.1072a76.3904 76.3904 0 0 0-4.7104-22.528q-87.6544-286.72-87.6544-352.6656a59.392 59.392 0 0 1 10.0352-33.1776 34.816 34.816 0 0 1 31.3344-15.36 134.9632 134.9632 0 0 1 63.8976 21.9136 806.0928 806.0928 0 0 1 113.664 94.0032c19.2512 20.0704-7.7824 31.5392-20.2752 21.9136zM595.461331 622.651693a49.3568 43.4176 74.29 1 1 26.72853 95.026104 49.3568 43.4176 74.29 1 1-26.72853-95.026104Z"  horiz-adv-x="1024" />

    
    <glyph glyph-name="icon-54" unicode="&#59181;" d="M512 875.52a491.52 491.52 0 1 1 491.52-491.52A491.52 491.52 0 0 1 512 875.52z m0-931.84A440.32 440.32 0 1 0 952.32 384 440.7296 440.7296 0 0 0 512-56.32zM734.8224 606.8224a25.6 25.6 0 0 1-36.2496 0L512 420.2496l-186.7776 186.7776a25.6 25.6 0 0 1-36.2496-36.2496L475.7504 384l-186.7776-186.7776a25.6 25.6 0 1 1 36.2496-36.2496L512 347.7504l186.7776-186.7776a25.6 25.6 0 0 1 36.2496 36.2496L548.2496 384l186.7776 186.7776a25.6 25.6 0 0 1-0.2048 36.0448z"  horiz-adv-x="1024" />

    
    <glyph glyph-name="icon-55" unicode="&#59182;" d="M921.6 358.4H102.4a25.6 25.6 0 0 0 0 51.2h819.2a25.6 25.6 0 0 0 0-51.2z"  horiz-adv-x="1024" />

    
    <glyph glyph-name="icon-56" unicode="&#59183;" d="M906.24 399.36H522.24V783.36a25.6 25.6 0 0 1-51.2 0v-384H87.04a25.6 25.6 0 0 1 0-51.2H471.04V-35.84a25.6 25.6 0 0 1 51.2 0V348.16h384a25.6 25.6 0 0 1 0 51.2z"  horiz-adv-x="1024" />

    
    <glyph glyph-name="icon-57" unicode="&#59184;" d="M491.52 824.32a440.32 440.32 0 0 0 311.296-751.616A440.32 440.32 0 0 0 180.224 695.296 437.4528 437.4528 0 0 0 491.52 824.32M491.52 875.52a491.52 491.52 0 1 1 348.16-143.36 489.8816 489.8816 0 0 1-348.16 143.36zM781.1072 358.4H201.9328a25.6 25.6 0 0 0 0 51.2h579.1744a25.6 25.6 0 0 0 0-51.2z"  horiz-adv-x="1024" />

    
    <glyph glyph-name="icon-58" unicode="&#59185;" d="M860.16 732.16a491.52 491.52 0 1 1 0-696.32 489.8816 489.8816 0 0 1 0 696.32z m-36.864-659.456A440.32 440.32 0 0 0 200.704 695.296a440.32 440.32 0 0 0 622.592-622.592zM801.5872 409.6H537.6V673.5872a25.6 25.6 0 1 1-51.2 0v-263.9872H222.4128a25.6 25.6 0 1 1 0-51.2h263.9872v-263.9872a25.6 25.6 0 1 1 51.2 0V358.4h263.9872a25.6 25.6 0 1 1 0 51.2z"  horiz-adv-x="1024" />

    
    <glyph glyph-name="icon-59" unicode="&#59186;" d="M548.2496 384L857.7024 693.6576a25.6 25.6 0 1 1-36.2496 36.2496L512 420.2496 202.3424 729.7024a25.6 25.6 0 0 1-36.0448-36.0448L475.7504 384 166.2976 74.3424a25.6 25.6 0 1 1 36.2496-36.2496L512 347.7504l309.6576-309.4528a25.6 25.6 0 0 1 36.2496 36.2496z"  horiz-adv-x="1024" />

    
    <glyph glyph-name="icon-60" unicode="&#59187;" d="M391.168 72.70399999999995a25.6 25.6 0 0 0-18.0224 7.5776l-329.728 329.728A25.6 25.6 0 0 0 79.4624 445.44L391.168 134.55359999999996l552.96 552.96a25.6 25.6 0 0 0 36.2496-36.2496L409.6 80.28160000000003a25.6 25.6 0 0 0-18.432-7.5776z"  horiz-adv-x="1024" />

    
    <glyph glyph-name="icon-61" unicode="&#59188;" d="M321.3312 20.48l409.6 346.7264a21.9136 21.9136 0 0 1 0 33.3824l-409.6 346.7264a21.9136 21.9136 0 0 1-36.0448-16.7936v-693.248a21.9136 21.9136 0 0 1 36.0448-16.7936z"  horiz-adv-x="1024" />

    
    <glyph glyph-name="icon-62" unicode="&#59189;" d="M702.6688 747.52l-409.6-346.7264a21.9136 21.9136 0 0 1 0-33.3824l409.6-346.7264a21.9136 21.9136 0 0 1 36.0448 16.7936V730.7264a21.9136 21.9136 0 0 1-36.0448 16.7936z"  horiz-adv-x="1024" />

    
    <glyph glyph-name="icon-63" unicode="&#59190;" d="M353.6896 384L724.5824 755.0976a25.6 25.6 0 1 1-36.2496 36.2496l-389.12-389.12a25.6 25.6 0 0 1 0-36.2496l389.12-389.12a25.6 25.6 0 0 1 36.2496 36.2496z"  horiz-adv-x="1024" />

    
    <glyph glyph-name="icon-64" unicode="&#59191;" d="M317.44-30.72a25.6 25.6 0 0 0-18.0224 43.6224L670.3104 384 299.4176 755.0976a25.6 25.6 0 1 0 36.2496 36.2496l389.12-389.12a25.6 25.6 0 0 0 0-36.2496l-389.12-389.12a25.6 25.6 0 0 0-18.2272-7.5776z"  horiz-adv-x="1024" />

    
    <glyph glyph-name="icon-65" unicode="&#59192;" d="M716.8 455.0656a25.6 25.6 0 0 1-25.6 25.6H466.5344V704.3072a25.6 25.6 0 1 1-51.2 0v-223.6416H191.6928a25.6 25.6 0 0 1 0-51.2h223.6416v-223.8464a25.6 25.6 0 0 1 51.2 0V429.4656h223.8464A25.6 25.6 0 0 1 716.8 455.0656zM998.6048-66.56L757.76 174.8992A424.3456 424.3456 0 1 1 721.1008 138.24L962.56-102.6048A25.6 25.6 0 0 1 998.6048-66.56zM177.9712 192.1024A371.9168 371.9168 0 0 0 703.8976 718.0288 371.9168 371.9168 0 0 0 177.9712 192.1024z"  horiz-adv-x="1024" />

    
    <glyph glyph-name="icon-66" unicode="&#59193;" d="M716.8 455.0656a25.6 25.6 0 0 1-25.6 25.6H191.6928a25.6 25.6 0 0 1 0-51.2h498.688A25.6 25.6 0 0 1 716.8 455.0656zM998.6048-66.56L757.76 174.8992A424.3456 424.3456 0 1 1 721.1008 138.24L962.56-102.6048A25.6 25.6 0 0 1 998.6048-66.56zM177.9712 192.1024a371.9168 371.9168 0 1 0 262.9632-108.9536 372.3264 372.3264 0 0 0-262.9632 108.9536z"  horiz-adv-x="1024" />

    
    <glyph glyph-name="icon-67" unicode="&#59194;" d="M921.6 409.6H163.84l286.72 286.72a25.6 25.6 0 1 1-36.2496 36.2496L84.3776 402.0224a25.6 25.6 0 0 1 0-36.2496l330.9568-330.9568a25.6 25.6 0 1 1 36.2496 36.2496l-286.72 286.72H921.6a25.6 25.6 0 0 1 0 51.2z"  horiz-adv-x="1024" />

    
    <glyph glyph-name="icon-68" unicode="&#59195;" d="M945.152 374.1696a25.6 25.6 0 0 1-5.5296 27.8528L608.6656 733.184a25.6 25.6 0 1 1-36.2496-36.2496l286.72-286.72H102.4a25.6 25.6 0 0 1 0-51.2h757.76l-286.72-286.72a25.6 25.6 0 1 1 36.2496-36.2496l329.9328 329.9328a25.6 25.6 0 0 1 5.5296 8.192z"  horiz-adv-x="1024" />

    
    <glyph glyph-name="icon-69" unicode="&#59196;" d="M493.9776 85.1968a25.6 25.6 0 0 1 36.2496 0L819.2 374.9888a25.6 25.6 0 0 1-36.2496 36.2496l-245.76-245.76V793.6a25.6 25.6 0 0 1-51.2 0v-628.5312l-245.76 245.76A25.6 25.6 0 0 1 204.8 374.9888zM805.2736 0H218.7264a25.6 25.6 0 0 1 0-51.2h586.5472a25.6 25.6 0 0 1 0 51.2z"  horiz-adv-x="1024" />

    
    <glyph glyph-name="icon-70" unicode="&#59197;" d="M240.2304 486.4l245.76 245.76v-628.9408a25.6 25.6 0 0 1 51.2 0V732.16l245.76-245.76A25.6 25.6 0 1 1 819.2 521.8304L530.0224 811.6224a25.6 25.6 0 0 1-36.2496 0L204.8 521.8304A25.6 25.6 0 1 1 240.2304 486.4zM805.2736 0H218.7264a25.6 25.6 0 0 1 0-51.2h586.5472a25.6 25.6 0 0 1 0 51.2z"  horiz-adv-x="1024" />

    
    <glyph glyph-name="icon-71" unicode="&#59198;" d="M819.453338 330.1376a204.8 204.8 0 0 1-176.5376-101.376L387.325338 358.1952a204.8 204.8 0 0 1 22.528 92.9792 211.1488 211.1488 0 0 1-4.9152 44.4416L714.800538 609.28a163.84 163.84 0 1 1-18.2272 74.3424 159.9488 159.9488 0 0 1 2.2528-26.2144l-311.296-113.664a204.8 204.8 0 1 1-29.2864-228.1472l264.3968-133.9392A204.8 204.8 0 1 1 819.453338 330.1376z m40.96 466.1248a112.64 112.64 0 1 0-112.64-112.64 112.64 112.64 0 0 0 112.64 112.64zM205.053338 297.57439999999997a153.6 153.6 0 1 0 153.6 153.6 153.8048 153.8048 0 0 0-153.6-153.6z m614.4-325.8368a153.6 153.6 0 1 0 153.6 153.6 153.6 153.6 0 0 0-153.6-153.6z"  horiz-adv-x="1035" />

    
    <glyph glyph-name="icon-72" unicode="&#59199;" d="M1016.156472 402.323656l-158.25906 158.259061a25.796432 25.796432 0 1 1-36.647312-36.647312l114.036606-114.036607H537.694086V807.696153l114.036606-114.036607a25.796432 25.796432 0 1 1 36.647312 36.442578L530.118943 888.361185a25.796432 25.796432 0 0 1-36.647312 0L335.417304 730.102124a25.796432 25.796432 0 1 1 36.647312-36.647311l114.036606 114.036606v-397.592621H88.303868l114.036606 114.036607a25.796432 25.796432 0 1 1-36.442578 36.647312L7.638835 402.323656a25.796432 25.796432 0 0 1 0-36.647312l158.259061-158.054327a25.796432 25.796432 0 1 1 36.647312 36.647312l-114.24134 114.036606h397.797354v-397.797354l-114.036606 114.036606a25.796432 25.796432 0 1 1-36.647312-36.647311l158.259061-158.259061a25.796432 25.796432 0 0 1 36.647311 0l158.259061 158.259061a25.796432 25.796432 0 1 1-36.647311 36.647311l-114.036607-114.036606V358.305935h397.592621l-114.036606-114.036606a25.796432 25.796432 0 1 1 36.647311-36.647312l158.259061 158.259061a25.796432 25.796432 0 0 1-0.204734 36.442578z"  horiz-adv-x="1024" />

    
    <glyph glyph-name="icon-73" unicode="&#59200;" d="M896 792.1664a76.8 76.8 0 0 0 76.8-76.8V160.76800000000003a76.8 76.8 0 0 0-76.8-76.8H579.1744a72.4992 72.4992 0 0 1-31.9488-7.3728l-168.96-81.92v69.632a20.48 20.48 0 0 1-20.48 20.48H128A76.8 76.8 0 0 0 51.2 160.76800000000003V715.3664a76.8 76.8 0 0 0 76.8 76.8h768m0 51.2H128A128.4096 128.4096 0 0 1 0 715.3664V160.76800000000003a128.4096 128.4096 0 0 1 128-128h197.0176a2.048 2.048 0 0 0 2.048-2.048v-84.5824a20.48 20.48 0 0 1 30.72-19.2512l211.968 103.6288a20.48 20.48 0 0 0 9.4208 2.2528h316.8256A128.4096 128.4096 0 0 1 1024 160.76800000000003V715.3664a128.4096 128.4096 0 0 1-128 128zM810.5984 583.0656H213.4016a25.6 25.6 0 1 0 0 51.2h597.1968a25.6 25.6 0 0 0 0-51.2zM640 363.52H213.4016a25.6 25.6 0 1 0 0 51.2h426.5984a25.6 25.6 0 0 0 0-51.2z"  horiz-adv-x="1024" />

    
    <glyph glyph-name="icon-74" unicode="&#59201;" d="M73.9328 556.6464a25.6 25.6 0 0 1 15.36-5.12h3.4816l191.0784 26.8288a25.6 25.6 0 1 1-6.9632 51.4048l-124.7232-17.408A424.96 424.96 0 0 0 935.7312 384a25.6 25.6 0 1 1 51.2 0 475.9552 475.9552 0 0 1-880.64 252.1088L88.064 771.6864a25.6 25.6 0 0 1-50.7904-7.168l26.8288-191.0784a25.6 25.6 0 0 1 9.8304-16.7936zM950.0672 211.3536a25.6 25.6 0 0 1-19.0464 4.9152l-190.8736-26.8288a25.6 25.6 0 0 1 6.9632-51.2l124.7232 17.408A424.96 424.96 0 0 0 88.2688 384a25.6 25.6 0 0 1-51.2 0 475.9552 475.9552 0 0 1 880.64-252.1088l19.0464-135.5776a25.6 25.6 0 0 1 24.576-21.9136h3.4816a25.6 25.6 0 0 1 21.9136 28.8768l-26.8288 191.0784a25.6 25.6 0 0 1-9.8304 16.9984z"  horiz-adv-x="1024" />

    
    <glyph glyph-name="icon-75" unicode="&#59202;" d="M336.4864 184.1152a26.0096 26.0096 0 0 0-26.0096 27.0336l4.9152 125.952a25.8048 25.8048 0 0 0 7.5776 17.408L809.1648 840.2944a122.88 122.88 0 0 0 81.92 36.4544 109.1584 109.1584 0 0 0 81.92-31.1296 107.1104 107.1104 0 0 0 31.1296-81.92 122.88 122.88 0 0 0-36.4544-81.92l-486.8096-485.376a25.8048 25.8048 0 0 0-17.408-7.5776l-125.952-4.9152z m125.952 30.72z m-95.4368 109.9776l-3.4816-87.8592L450.56 240.64 930.2016 719.2576a71.2704 71.2704 0 0 1 20.48 47.3088 54.6816 54.6816 0 0 1-58.5728 58.5728 71.2704 71.2704 0 0 1-47.3088-20.48zM801.5872-108.9536H171.008A150.528 150.528 0 0 0 20.48 41.5744V672.1536a150.528 150.528 0 0 0 150.528 150.528h413.2864a26.0096 26.0096 0 0 0 0-51.8144H171.008a98.7136 98.7136 0 0 1-98.5088-98.5088v-630.784a98.7136 98.7136 0 0 1 98.5088-98.5088h630.5792a98.7136 98.7136 0 0 1 98.5088 98.5088V455.0656a26.0096 26.0096 0 1 0 51.8144 0v-413.4912a150.528 150.528 0 0 0-150.3232-150.528z"  horiz-adv-x="1024" />

    
    <glyph glyph-name="icon-76" unicode="&#59203;" d="M975.4624 760.4224l-87.04 87.04a148.8896 148.8896 0 0 1-209.92 0l-173.8752-173.8752a148.6848 148.6848 0 0 1 0-209.92l25.3952-25.3952-72.4992-72.4992-25.3952 25.3952a148.6848 148.6848 0 0 1-209.92 0l-173.6704-173.6704a148.8896 148.8896 0 0 1 0-209.92l86.8352-86.8352a148.8896 148.8896 0 0 1 209.92 0l173.8752 173.8752a148.6848 148.6848 0 0 1 0 209.92l-25.3952 25.3952 72.4992 72.4992 25.3952-25.3952a148.6848 148.6848 0 0 1 209.92 0l173.8752 173.8752a148.8896 148.8896 0 0 1 0 209.92z m-491.52-491.52a97.4848 97.4848 0 0 0 0-137.6256l-174.6944-174.4896a97.6896 97.6896 0 0 0-137.6256 0l-86.8352 86.8352a97.6896 97.6896 0 0 0 0 137.6256l173.8752 173.8752a97.4848 97.4848 0 0 0 137.6256 0l25.3952-25.3952-102.4-102.4a25.6 25.6 0 1 1 36.2496-36.2496l102.4 102.4zM939.2128 586.752l-173.8752-173.8752a97.4848 97.4848 0 0 0-137.6256 0l-25.3952 25.3952 120.4224 120.4224a25.6 25.6 0 1 1-36.2496 36.2496l-120.4224-120.4224-25.3952 25.3952a97.4848 97.4848 0 0 0 0 137.6256l174.08 173.6704a97.6896 97.6896 0 0 0 137.6256 0l86.8352-86.8352a97.6896 97.6896 0 0 0 0-137.6256z"  horiz-adv-x="1024" />

    
    <glyph glyph-name="icon-77" unicode="&#59204;" d="M309.4528 779.0592a31.1296 31.1296 0 0 0 30.72-30.72v-219.7504a31.1296 31.1296 0 0 0-30.72-30.72H89.7024a31.1296 31.1296 0 0 0-30.72 30.72V748.3392a31.1296 31.1296 0 0 0 30.72 30.72h219.7504m0 51.2H89.7024a81.92 81.92 0 0 1-81.92-81.92v-219.7504a81.92 81.92 0 0 1 81.92-81.92h219.7504a81.92 81.92 0 0 1 81.92 81.92V748.3392a81.92 81.92 0 0 1-81.92 81.92zM990.8224 708.8128H529.408a25.6 25.6 0 0 0 0 51.2h461.4144a25.6 25.6 0 0 0 0-51.2zM990.8224 516.9152H529.408a25.6 25.6 0 0 0 0 51.2h461.4144a25.6 25.6 0 0 0 0-51.2zM309.4528 270.1312a31.1296 31.1296 0 0 0 30.72-30.72v-219.7504a31.1296 31.1296 0 0 0-30.72-30.72H89.7024a31.1296 31.1296 0 0 0-30.72 30.72V239.4112a31.1296 31.1296 0 0 0 30.72 30.72h219.7504m0 51.2H89.7024a81.92 81.92 0 0 1-81.92-81.92v-219.7504a81.92 81.92 0 0 1 81.92-81.92h219.7504a81.92 81.92 0 0 1 81.92 81.92V239.4112a81.92 81.92 0 0 1-81.92 81.92zM990.8224 199.68H529.408a25.6 25.6 0 0 0 0 51.2h461.4144a25.6 25.6 0 1 0 0-51.2zM990.8224 7.9872H529.408a25.6 25.6 0 0 0 0 51.2h461.4144a25.6 25.6 0 0 0 0-51.2z"  horiz-adv-x="1024" />

    
    <glyph glyph-name="icon-78" unicode="&#59205;" d="M834.7648 463.6672l-307.2 363.9296a20.48 20.48 0 0 1-29.696 0l-307.2-363.9296a20.48 20.48 0 0 1 14.1312-31.9488h614.4a20.48 20.48 0 0 1 15.5648 31.9488zM834.7648 304.3328l-307.2-363.9296a20.48 20.48 0 0 0-29.696 0l-307.2 363.9296a20.48 20.48 0 0 0 14.1312 31.9488h614.4a20.48 20.48 0 0 0 15.5648-31.9488z"  horiz-adv-x="1024" />

    
    <glyph glyph-name="icon-79" unicode="&#59206;" d="M858.112 877.9776H327.68a148.0704 148.0704 0 0 1-147.2512-147.2512H140.9024a122.88 122.88 0 0 1-122.88-122.88v-595.1488a122.88 122.88 0 0 1 122.88-122.88h594.944a122.88 122.88 0 0 1 122.88 122.88v39.7312a148.0704 148.0704 0 0 1 147.456 147.2512V730.112A148.0704 148.0704 0 0 1 858.112 877.9776z m-50.5856-865.28a71.68 71.68 0 0 0-71.68-71.68H140.9024a71.68 71.68 0 0 0-71.68 71.68V607.8464a71.68 71.68 0 0 0 71.68 71.68h594.944a71.68 71.68 0 0 0 71.68-71.68z m147.456 186.9824a96.8704 96.8704 0 0 0-96.0512-96.6656V607.8464a122.88 122.88 0 0 1-122.88 122.88H231.6288A96.8704 96.8704 0 0 0 327.68 826.7776h530.432a96.8704 96.8704 0 0 0 96.8704-96.6656zM634.88 335.872h-171.008V506.88a25.6 25.6 0 0 1-51.2 0v-171.2128h-171.2128a25.6 25.6 0 0 1 0-51.2h171.2128v-171.2128a25.6 25.6 0 0 1 51.2 0v171.4176H634.88a25.6 25.6 0 0 1 0 51.2z"  horiz-adv-x="1024" />

    
    <glyph glyph-name="icon-80" unicode="&#59207;" d="M987.9552-29.696h-44.6464V514.8672a67.3792 67.3792 0 0 1-67.1744 67.1744h-81.92a67.3792 67.3792 0 0 1-67.1744-67.1744V-29.696h-106.496V344.8832a67.3792 67.3792 0 0 1-67.584 67.1744h-81.92a67.3792 67.3792 0 0 1-67.1744-67.1744V-29.696h-106.0864V180.6336a67.3792 67.3792 0 0 1-67.1744 67.1744h-81.92a67.3792 67.3792 0 0 1-67.1744-67.1744V-29.696H36.0448a25.8048 25.8048 0 0 1 0-51.8144h951.9104a25.8048 25.8048 0 1 1 0 51.8144zM778.24 514.8672a15.5648 15.5648 0 0 0 15.5648 15.5648h81.92a15.5648 15.5648 0 0 0 15.5648-15.5648V-29.696H778.24z m-322.7648-169.984a15.5648 15.5648 0 0 0 15.5648 15.5648h81.92a15.5648 15.5648 0 0 0 15.5648-15.5648V-29.696h-113.4592z m-322.7648-163.84a15.5648 15.5648 0 0 0 15.5648 15.5648h81.92a15.5648 15.5648 0 0 0 15.5648-15.5648V-29.696H132.3008zM55.0912 384a25.6 25.6 0 0 1 10.8544 2.4576l768 357.1712 27.4432-58.9824L968.9088 834.56l-184.32 14.336 27.4432-58.9824-768-357.5808A25.8048 25.8048 0 0 1 55.0912 384z"  horiz-adv-x="1024" />

    
    <glyph glyph-name="icon-81" unicode="&#59208;" d="M944.5376 372.9408a25.6 25.6 0 0 1-25.6-25.6v-293.4784a94.8224 94.8224 0 0 0-94.8224-94.8224H181.8624a94.8224 94.8224 0 0 0-94.8224 94.8224V696.1152a94.8224 94.8224 0 0 0 94.8224 94.8224H485.376a25.6 25.6 0 0 1 0 51.2H181.8624a146.2272 146.2272 0 0 1-146.0224-146.0224v-642.2528a146.2272 146.2272 0 0 1 146.0224-146.0224h642.2528a146.2272 146.2272 0 0 1 146.0224 146.0224V347.3408a25.6 25.6 0 0 1-25.6 25.6zM986.112 844.3904A25.6 25.6 0 0 1 962.56 860.16H688.7424a25.6 25.6 0 0 1 0-51.2H901.12L427.4176 335.6672a25.6 25.6 0 1 1 36.2496-36.2496L936.96 773.12v-212.3776a25.6 25.6 0 1 1 51.2 0V834.56a25.6 25.6 0 0 1-2.048 9.8304z"  horiz-adv-x="1024" />

    
    <glyph glyph-name="icon-82" unicode="&#59209;" d="M1024.693471 384a122.800622 122.800622 0 0 1-104.789864 121.367948 424.276148 424.276148 0 0 1-286.534784 286.534784 122.800622 122.800622 0 0 1-242.735895 0 425.91349 425.91349 0 0 1-286.534784-286.534784 122.800622 122.800622 0 0 1 0-242.735896 423.662145 423.662145 0 0 1 286.534784-286.534784 122.800622 122.800622 0 0 1 242.735895 0 423.252809 423.252809 0 0 1 286.534784 285.511446A122.800622 122.800622 0 0 1 1024.693471 384zM630.912811 738.484461a373.31389 373.31389 0 0 0 236.595864-236.595864 122.800622 122.800622 0 0 1-85.755767-92.305134h-107.245877a163.734162 163.734162 0 0 1-135.899354 135.899355v107.245876a122.800622 122.800622 0 0 1 92.305134 85.755767zM513.024214 271.432763a112.567237 112.567237 0 1 0 112.567236 112.567237 112.771904 112.771904 0 0 0-112.567236-112.567237z m0 573.069568A71.633696 71.633696 0 1 0 441.390518 772.868635 71.633696 71.633696 0 0 0 513.024214 844.502331z m-117.888597-106.01787a122.800622 122.800622 0 0 1 92.305134-85.755767v-107.245876a163.734162 163.734162 0 0 1-135.899355-135.899355h-107.245876a122.800622 122.800622 0 0 1-85.5511 92.305134A374.746564 374.746564 0 0 0 395.135617 738.484461zM52.521882 384A71.633696 71.633696 0 1 0 124.155578 312.366304 71.633696 71.633696 0 0 0 52.521882 384z m342.613735-354.484461A372.495219 372.495219 0 0 0 158.539753 266.111403a122.800622 122.800622 0 0 1 85.755767 92.305134h107.245876a163.734162 163.734162 0 0 1 135.899355-135.899355v-107.245876a122.800622 122.800622 0 0 1-92.305134-85.755767zM513.024214-76.502331a71.633696 71.633696 0 1 0 71.633696 71.633696 71.633696 71.633696 0 0 0-71.633696-71.633696z m117.888597 106.01787a122.800622 122.800622 0 0 1-92.305134 85.755767v107.245876a163.734162 163.734162 0 0 1 135.899354 135.899355h107.245877a122.800622 122.800622 0 0 1 85.755767-92.305134 372.290551 372.290551 0 0 0-236.595864-236.595864zM901.892849 312.366304a71.633696 71.633696 0 1 0 71.633696 71.633696 71.633696 71.633696 0 0 0-71.633696-71.633696z"  horiz-adv-x="1025" />

    
    <glyph glyph-name="icon-83" unicode="&#59210;" d="M1018.0608 385.8432C972.1856 463.872 800.5632 717.0048 512 717.0048S51.8144 463.872 5.9392 385.8432a40.96 40.96 0 0 1 1.2288-44.2368C54.8864 270.7456 225.28 50.9952 512 50.9952s457.1136 219.7504 505.0368 290.6112a40.96 40.96 0 0 1 1.024 44.2368zM512 102.1952c-254.7712 0-411.8528 194.56-458.9568 262.7584C99.5328 442.1632 256.8192 665.8048 512 665.8048s412.4672-223.6416 458.9568-300.8512c-47.104-68.1984-204.1856-262.7584-458.9568-262.7584zM512 588.8a204.8 204.8 0 1 1 204.8-204.8 204.8 204.8 0 0 1-204.8 204.8z m0-358.4a153.6 153.6 0 1 0 153.6 153.6 153.8048 153.8048 0 0 0-153.6-153.6z"  horiz-adv-x="1024" />

    
    <glyph glyph-name="icon-84" unicode="&#59213;" d="M829.03021 688.94671H593.919951V747.519475A148.684711 148.684711 0 0 1 444.82564 895.999386H193.740991a148.684711 148.684711 0 0 1-148.479911-148.479911v-808.959515A66.55996 66.55996 0 0 1 111.82104-128h799.94832a67.17436 67.17436 0 0 1 66.96956 66.96956V539.238a149.91351 149.91351 0 0 1-149.70871 149.70871z m0-51.199969a98.713541 98.713541 0 0 0 98.508741-98.508741v-409.599755H593.919951V637.746741zM513.228799-76.800031H111.82104a15.359991 15.359991 0 0 0-15.359991 15.359991V747.519475A97.484742 97.484742 0 0 0 193.740991 844.799416h251.084649a97.484742 97.484742 0 0 0 97.279942-97.279941V-76.800031z m398.335761 0H593.919951v155.852707h333.619v-139.878316a15.769591 15.769591 0 0 0-15.769591-15.974391zM433.152047 707.173899H204.800184a25.599985 25.599985 0 1 1 0-51.199969h228.351863a25.599985 25.599985 0 0 1 0 51.199969zM433.152047 562.175586H204.800184a25.599985 25.599985 0 1 1 0-51.199969h228.351863a25.599985 25.599985 0 1 1 0 51.199969z"  horiz-adv-x="1024" />

    
    <glyph glyph-name="icon-85" unicode="&#59214;" d="M778.24 689.5616h-46.08V749.1584a66.56 66.56 0 0 1-66.56 66.56h-307.2a66.56 66.56 0 0 1-66.56-66.56v-59.8016H245.76a245.76 245.76 0 0 1-245.76-245.76v-368.64a122.88 122.88 0 0 1 122.88-122.88h778.24a122.88 122.88 0 0 1 122.88 122.88v368.64a245.76 245.76 0 0 1-245.76 245.9648zM343.04 749.1584a15.36 15.36 0 0 0 15.36 15.36h307.2a15.36 15.36 0 0 0 15.36-15.36v-59.8016h-337.92zM245.76 638.3616h46.08v-98.9184a25.6 25.6 0 1 1 51.2 0v98.9184h337.92v-98.9184a25.6 25.6 0 1 1 51.2 0v98.9184H778.24a194.7648 194.7648 0 0 0 194.56-194.56v-248.832h-921.6V443.8016a194.7648 194.7648 0 0 0 194.56 194.56z m655.36-634.88H122.88a71.68 71.68 0 0 0-71.68 71.68v68.608h921.6v-68.608a71.68 71.68 0 0 0-71.68-71.68z"  horiz-adv-x="1024" />

    
    <glyph glyph-name="icon-86" unicode="&#59215;" d="M1009.664 387.8912L891.6992 486.4A521.216 521.216 0 0 1 983.04 579.584 25.6 25.6 0 0 1 942.08 609.28a556.6464 556.6464 0 0 0-430.08-204.8A556.6464 556.6464 0 0 0 81.92 609.28a25.6 25.6 0 0 1-40.96-29.696A521.216 521.216 0 0 1 132.3008 486.4L14.336 387.8912a25.6 25.6 0 1 1 32.768-39.1168l127.3856 106.9056a602.3168 602.3168 0 0 1 122.88-63.8976l-76.1856-161.9968a25.6 25.6 0 1 1 46.4896-21.7088l78.0288 167.3216a598.8352 598.8352 0 0 1 140.6976-22.528v-179.6096a25.6 25.6 0 0 1 51.2 0v179.8144a598.8352 598.8352 0 0 1 140.6976 22.528l78.0288-167.3216a25.6 25.6 0 1 1 46.4896 21.7088l-75.5712 161.9968a602.3168 602.3168 0 0 1 122.88 63.8976l127.3856-106.9056a25.6 25.6 0 0 1 32.9728 39.1168z"  horiz-adv-x="1024" />

    
    <glyph glyph-name="icon-87" unicode="&#59216;" d="M1009.0496 552.5504L774.3488 832.1024a63.8976 63.8976 0 0 1-90.112 7.9872l-97.0752-81.92-4.096-1.4336h-142.1312l-4.096 1.4336-97.0752 81.92a63.8976 63.8976 0 0 1-90.112-7.9872L14.9504 552.5504a64.1024 64.1024 0 0 1 7.9872-90.112l131.4816-110.1824a15.9744 15.9744 0 0 0 5.7344-12.288V-5.12a81.92 81.92 0 0 1 81.92-81.92h540.0576a81.92 81.92 0 0 1 81.92 81.92V339.968a15.9744 15.9744 0 0 0 5.7344 12.288l131.4816 110.1824a64.1024 64.1024 0 0 1 7.7824 90.112zM782.1312-35.84H241.8688a31.1296 31.1296 0 0 0-30.72 30.72v130.4576h601.7024V-5.12a31.1296 31.1296 0 0 0-30.72-30.72z m186.1632 537.3952l-131.4816-110.1824a66.9696 66.9696 0 0 1-23.9616-51.4048v-163.84H211.1488v163.84a66.9696 66.9696 0 0 1-23.9616 51.4048l-131.4816 110.1824a12.9024 12.9024 0 0 0-1.6384 18.0224L288.768 799.3344a12.6976 12.6976 0 0 0 18.432 1.4336l97.0752-81.92 6.9632-5.7344 8.3968-3.072h4.096l8.3968-3.072h159.9488l8.3968 3.072h4.096l8.3968 3.072 6.9632 5.7344 97.0752 81.92a12.6976 12.6976 0 0 0 18.0224-1.6384l234.7008-279.552a12.9024 12.9024 0 0 0-1.4336-18.0224z"  horiz-adv-x="1024" />

    
    <glyph glyph-name="icon-88" unicode="&#59217;" d="M983.04 565.8624h-7.5776v81.92a107.7248 107.7248 0 0 1-107.52 107.52H371.9168l-7.3728 15.1552A40.96 40.96 0 0 1 327.68 793.6H122.88a122.88 122.88 0 0 1-122.88-122.88v-573.44a122.88 122.88 0 0 1 122.88-122.88h778.24a122.88 122.88 0 0 1 122.88 122.88V524.9024a40.96 40.96 0 0 1-40.96 40.96z m-115.0976 138.0352a56.32 56.32 0 0 0 56.32-56.32v-81.92H469.8112a10.24 10.24 0 0 0-9.216 5.7344l-64.1024 132.5056zM972.8 97.28a71.68 71.68 0 0 0-71.68-71.68H122.88A71.68 71.68 0 0 0 51.2 97.28V670.72A71.68 71.68 0 0 0 122.88 742.4h198.2464l93.3888-193.1264a61.44 61.44 0 0 1 55.296-34.816H972.8z"  horiz-adv-x="1024" />

    
    <glyph glyph-name="icon-89" unicode="&#59218;" d="M860.16 803.84A71.68 71.68 0 0 0 931.84 732.16v-696.32a71.68 71.68 0 0 0-71.68-71.68H163.84A71.68 71.68 0 0 0 92.16 35.84V732.16A71.68 71.68 0 0 0 163.84 803.84h696.32M860.16 855.04H163.84a122.88 122.88 0 0 1-122.88-122.88v-696.32a122.88 122.88 0 0 1 122.88-122.88h696.32a122.88 122.88 0 0 1 122.88 122.88V732.16a122.88 122.88 0 0 1-122.88 122.88zM425.984 597.1968a29.9008 29.9008 0 0 0 17.6128-5.9392l256-182.4768a30.72 30.72 0 0 0 0-49.9712l-256-182.4768a29.9008 29.9008 0 0 0-17.6128-5.9392 30.72 30.72 0 0 0-30.9248 30.9248V566.4768a30.72 30.72 0 0 0 30.9248 30.9248m0 51.2a81.92 81.92 0 0 1-81.92-81.92v-365.1584a81.92 81.92 0 0 1 81.92-81.92 81.92 81.92 0 0 1 47.3088 15.36l256 182.4768a81.92 81.92 0 0 1 0 133.5296l-256.2048 182.272a81.92 81.92 0 0 1-47.3088 15.36z"  horiz-adv-x="1024" />

    
    <glyph glyph-name="icon-90" unicode="&#59219;" d="M999.811482 464.2816h-103.6288a285.2864 285.2864 0 0 1-65.536 158.1056l73.3184 73.3184A25.6 25.6 0 1 1 867.715482 732.16l-73.3184-73.3184A285.2864 285.2864 0 0 1 636.291482 723.968V827.8016a25.6 25.6 0 0 1-51.2 0v-103.6288a284.4672 284.4672 0 0 1-158.1056-65.7408L353.667482 732.16a25.6 25.6 0 0 1-36.2496-36.2496l73.1136-73.728a286.72 286.72 0 0 1-45.4656-75.5712c-9.0112 0-18.2272 1.2288-27.4432 1.2288h-20.48a316.416 316.416 0 0 1 7.168-632.0128h429.6704a204.8 204.8 0 0 1 204.8 225.28 201.3184 201.3184 0 0 1-85.6064 144.7936 283.648 283.648 0 0 1 44.032 128.2048h103.6288a25.6 25.6 0 0 1 0 51.2z m-113.0496-329.3184a151.9616 151.9616 0 0 0-39.1168-118.3744 154.0096 154.0096 0 0 0-113.664-50.7904H307.587482A265.216 265.216 0 0 0 53.021082 246.5792a268.0832 268.0832 0 0 0 248.4224 249.6512h16.5888a265.0112 265.0112 0 0 0 251.904-182.0672 60.2112 60.2112 0 0 1 57.344-40.96h100.1472a158.5152 158.5152 0 0 0 159.3344-138.24z m-159.3344 189.44h-100.1472a9.216 9.216 0 0 0-8.6016 6.3488 317.2352 317.2352 0 0 1-220.9792 206.848 235.1104 235.1104 0 0 0 448.512-98.9184 231.6288 231.6288 0 0 0-39.5264-129.4336 215.6544 215.6544 0 0 1-79.2576 15.1552z"  horiz-adv-x="1026" />

    
    <glyph glyph-name="icon-91" unicode="&#59220;" d="M502.1696 38.912a25.8048 25.8048 0 0 0-25.8048 25.8048V703.0784a25.8048 25.8048 0 0 0 51.8144 0v-638.1568a25.8048 25.8048 0 0 0-26.0096-26.0096zM343.2448 119.1936a25.8048 25.8048 0 0 0-25.8048 25.8048V623.0016a25.8048 25.8048 0 0 0 51.8144 0v-478.0032a25.8048 25.8048 0 0 0-26.0096-25.8048zM184.32 199.68a25.8048 25.8048 0 0 0-25.8048 25.8048V542.72a25.8048 25.8048 0 0 0 51.8144 0v-317.44A25.8048 25.8048 0 0 0 184.32 199.68zM25.8048 299.4176A25.8048 25.8048 0 0 0 0 325.2224v117.5552a25.8048 25.8048 0 0 0 51.8144 0v-117.3504a25.8048 25.8048 0 0 0-26.0096-26.0096zM680.7552 119.1936A25.8048 25.8048 0 0 0 655.36 144.9984V623.0016a25.8048 25.8048 0 1 0 51.8144 0v-478.0032a25.8048 25.8048 0 0 0-26.4192-25.8048zM839.68 199.68a25.8048 25.8048 0 0 0-25.8048 25.8048V542.72a25.8048 25.8048 0 0 0 51.8144 0v-317.44A25.8048 25.8048 0 0 0 839.68 199.68zM998.1952 299.4176a25.8048 25.8048 0 0 0-25.8048 25.8048v117.5552a25.8048 25.8048 0 0 0 51.8144 0v-117.3504a25.8048 25.8048 0 0 0-26.0096-26.0096z"  horiz-adv-x="1024" />

    
    <glyph glyph-name="icon-92" unicode="&#59221;" d="M501.76 849.92a471.04 471.04 0 1 1 471.04-471.04 471.04 471.04 0 0 1-471.04 471.04z m0-890.88A419.84 419.84 0 1 0 921.6 378.88a420.2496 420.2496 0 0 0-419.84-419.84zM679.936 687.5136a25.8048 25.8048 0 0 1-28.8768-2.2528L372.736 458.9568a25.6 25.6 0 0 1-9.216-16.1792l-51.8144-347.136a25.6 25.6 0 0 1 40.96-23.7568l273.6128 219.3408a25.6 25.6 0 0 1 9.216 15.9744l56.9344 354.0992a25.6 25.6 0 0 1-12.4928 26.2144zM409.6 399.9744l157.4912-90.9312-194.56-156.0576z m182.272-46.08l-155.8528 89.9072 195.7888 159.3344z"  horiz-adv-x="1024" />

    
    <glyph glyph-name="icon-93" unicode="&#59222;" d="M642.6624 793.6h184.32a97.4848 97.4848 0 0 0 97.28-97.28v-184.32a25.6 25.6 0 0 1 51.2 0v184.32a148.6848 148.6848 0 0 1-148.48 148.48h-184.32a25.6 25.6 0 0 1 0-51.2zM69.2224 486.4a25.6 25.6 0 0 1 25.6 25.6v184.32A97.4848 97.4848 0 0 0 192.1024 793.6h184.32a25.6 25.6 0 0 1 0 51.2h-184.32a148.6848 148.6848 0 0 1-148.48-148.48v-184.32A25.6 25.6 0 0 1 69.2224 486.4zM949.8624 271.36a25.6 25.6 0 0 1-25.6-25.6v-184.32a97.4848 97.4848 0 0 0-97.28-97.28h-184.32a25.6 25.6 0 0 1 0-51.2h184.32a148.6848 148.6848 0 0 1 148.48 148.48v184.32a25.6 25.6 0 0 1-25.6 25.6zM376.4224-35.84h-184.32a97.4848 97.4848 0 0 0-97.28 97.28v184.32a25.6 25.6 0 0 1-51.2 0v-184.32A148.6848 148.6848 0 0 1 192.1024-87.04h184.32a25.6 25.6 0 0 1 0 51.2zM960.1024 404.48h-901.12a25.6 25.6 0 0 1 0-51.2h901.12a25.6 25.6 0 0 1 0 51.2z"  horiz-adv-x="1024" />

    
    <glyph glyph-name="icon-94" unicode="&#59223;" d="M773.12 824.32h-73.3184A81.92 81.92 0 0 1 619.52 890.88h-204.8a81.92 81.92 0 0 1-80.2816-66.56h-73.3184a148.6848 148.6848 0 0 1-148.48-148.48v-655.36A148.6848 148.6848 0 0 1 261.12-128h512A148.6848 148.6848 0 0 1 921.6 20.48v655.36a148.6848 148.6848 0 0 1-148.48 148.48z m-358.4 15.36h204.8a30.72 30.72 0 0 0 0-61.44h-204.8a30.72 30.72 0 0 0 0 61.44z m455.68-819.2a97.4848 97.4848 0 0 0-97.28-97.28h-512A97.4848 97.4848 0 0 0 163.84 20.48v655.36A97.4848 97.4848 0 0 0 261.12 773.12h80.2816a81.92 81.92 0 0 1 73.3184-46.08h204.8A81.92 81.92 0 0 1 692.8384 773.12h80.2816a97.4848 97.4848 0 0 0 97.28-97.28zM721.92 569.9584h-409.6a25.6 25.6 0 0 1 0-51.2h409.6a25.6 25.6 0 1 1 0 51.2zM721.92 363.52h-409.6a25.6 25.6 0 0 1 0-51.2h409.6a25.6 25.6 0 0 1 0 51.2zM721.92 157.0816h-409.6a25.6 25.6 0 0 1 0-51.2h409.6a25.6 25.6 0 0 1 0 51.2z"  horiz-adv-x="1024" />

    
    <glyph glyph-name="icon-95" unicode="&#59224;" d="M359.0144 798.72A71.68 71.68 0 0 0 430.08 727.04v-195.1744a71.68 71.68 0 0 0-71.68-71.68H163.84a71.68 71.68 0 0 0-71.68 71.68V727.04A71.68 71.68 0 0 0 163.84 798.72h195.1744m0 51.2H163.84a122.88 122.88 0 0 1-122.88-122.88v-195.1744a122.88 122.88 0 0 1 122.88-122.88h195.1744a122.88 122.88 0 0 1 122.88 122.88V727.04a122.88 122.88 0 0 1-122.88 122.88zM860.16 798.72a71.68 71.68 0 0 0 71.68-71.68v-195.1744a71.68 71.68 0 0 0-71.68-71.68h-195.1744a71.68 71.68 0 0 0-71.68 71.68V727.04a71.68 71.68 0 0 0 71.68 71.68H860.16m0 51.2h-195.1744a122.88 122.88 0 0 1-122.88-122.88v-195.1744a122.88 122.88 0 0 1 122.88-122.88H860.16a122.88 122.88 0 0 1 122.88 122.88V727.04a122.88 122.88 0 0 1-122.88 122.88zM359.0144 297.5744a71.68 71.68 0 0 0 71.68-71.68v-195.1744a71.68 71.68 0 0 0-71.68-71.68H163.84a71.68 71.68 0 0 0-71.68 71.68v195.1744a71.68 71.68 0 0 0 71.68 71.68h195.1744m0 51.2H163.84a122.88 122.88 0 0 1-122.88-122.88v-195.1744a122.88 122.88 0 0 1 122.88-122.88h195.1744a122.88 122.88 0 0 1 122.88 122.88v195.1744a122.88 122.88 0 0 1-122.88 122.88zM583.0656-71.2704A25.6 25.6 0 0 0 557.4656-46.08V302.08a25.6 25.6 0 0 0 51.2 0v-348.16a25.6 25.6 0 0 0-25.6-25.1904zM931.84-71.2704A25.6 25.6 0 0 0 906.24-46.08V302.08a25.6 25.6 0 0 0 51.2 0v-348.16a25.6 25.6 0 0 0-25.6-25.1904zM762.4704-71.2704A25.6 25.6 0 0 0 737.28-46.08V240.64a25.6 25.6 0 0 0 51.2 0v-286.72a25.6 25.6 0 0 0-26.0096-25.1904z"  horiz-adv-x="1024" />

    
    <glyph glyph-name="icon-96" unicode="&#59225;" d="M509.5424 134.5536a59.1872 59.1872 0 1 0-40.96-17.408 58.7776 58.7776 0 0 0 40.96 17.408m0 51.2a110.3872 110.3872 0 1 1 78.0288-32.3584 109.9776 109.9776 0 0 1-78.0288 32.3584zM730.5216 270.9504a25.6 25.6 0 0 0-18.0224 7.5776 286.72 286.72 0 0 1-406.1184 0 25.6 25.6 0 0 0-36.2496 36.2496 338.7392 338.7392 0 0 0 478.4128 0 25.6 25.6 0 0 0-18.0224-43.6224zM860.16 419.4304a25.6 25.6 0 0 0-18.0224 7.5776 471.04 471.04 0 0 1-666.2144 0 25.6 25.6 0 0 0-36.2496 36.2496 522.8544 522.8544 0 0 0 738.5088 0 25.6 25.6 0 0 0-18.0224-43.8272zM990.8224 568.32a25.6 25.6 0 0 0-18.0224 7.5776 655.36 655.36 0 0 1-926.3104 0 25.6 25.6 0 0 0-36.4544 35.6352 706.9696 706.9696 0 0 0 998.8096 0 25.6 25.6 0 0 0-18.0224-43.2128z"  horiz-adv-x="1024" />

    
    <glyph glyph-name="icon-97" unicode="&#59226;" d="M1011.3024 883.3024A25.6 25.6 0 0 1 983.04 888.832L20.48 473.2928A25.6 25.6 0 0 1 21.9136 424.96l384.4096-143.36 147.6608-389.12a25.6 25.6 0 0 1 23.3472-16.5888 25.6 25.6 0 0 1 23.9616 16.5888L1016.832 855.04a25.6 25.6 0 0 1-5.5296 28.2624zM880.64 788.6848L423.3216 331.3664 99.5328 451.584zM579.1744-29.0816l-122.88 322.1504L916.6848 752.64z"  horiz-adv-x="1024" />

    
    <glyph glyph-name="icon-98" unicode="&#59227;" d="M901.12 692.8384h-75.1616a66.3552 66.3552 0 0 1-4.7104 88.4736l-79.872 79.872a66.56 66.56 0 0 1-94.208 0L512 725.8112 376.6272 861.184a66.56 66.56 0 0 1-94.208 0L202.752 781.312a66.3552 66.3552 0 0 1-4.7104-88.4736H122.88a122.88 122.88 0 0 1-122.88-122.88 122.88 122.88 0 0 1 75.9808-113.4592V35.84A148.6848 148.6848 0 0 1 225.28-112.64h573.44A148.6848 148.6848 0 0 1 948.0192 35.84V456.4992A122.88 122.88 0 0 1 1024 569.9584a122.88 122.88 0 0 1-122.88 122.88zM683.6224 824.9344a15.5648 15.5648 0 0 0 21.7088 0l79.872-79.872a15.5648 15.5648 0 0 0 0-21.7088l-30.72-30.5152h-202.9568zM455.68 498.2784v143.36h112.64v-143.36z m112.64-51.2v-508.5184h-112.64V447.0784zM239.0016 723.3536a15.5648 15.5648 0 0 0 0 21.7088l79.872 79.872a15.5648 15.5648 0 0 0 21.7088 0l132.096-132.096h-203.1616zM51.2 569.9584a71.68 71.68 0 0 0 71.68 71.68h281.6v-143.36H122.88a71.68 71.68 0 0 0-71.68 71.68zM127.1808 35.84V447.0784h277.2992v-508.5184H225.28A97.4848 97.4848 0 0 0 127.1808 35.84zM798.72-61.44h-179.2V447.0784h277.2992V35.84A97.4848 97.4848 0 0 0 798.72-61.44z m102.4 559.7184H619.52v143.36H901.12a71.68 71.68 0 1 0 0-143.36z"  horiz-adv-x="1024" />

    
    <glyph glyph-name="icon-99" unicode="&#59228;" d="M512 844.8A317.8496 317.8496 0 0 0 829.44 527.36v-286.72a317.44 317.44 0 0 0-634.88 0V527.36A317.8496 317.8496 0 0 0 512 844.8M512 896A369.664 369.664 0 0 1 143.36 527.36v-286.72a368.64 368.64 0 0 1 737.28 0V527.36A369.664 369.664 0 0 1 512 896zM512 512a25.6 25.6 0 0 0-25.6 25.6V696.32a25.6 25.6 0 0 0 51.2 0v-158.72A25.6 25.6 0 0 0 512 512z"  horiz-adv-x="1024" />

    
    <glyph glyph-name="icon-100" unicode="&#59229;" d="M860.16 855.04H163.84a122.88 122.88 0 0 1-122.88-122.88v-696.32a122.88 122.88 0 0 1 122.88-122.88h696.32a122.88 122.88 0 0 1 122.88 122.88V732.16a122.88 122.88 0 0 1-122.88 122.88z m71.68-819.2a71.68 71.68 0 0 0-71.68-71.68H163.84A71.68 71.68 0 0 0 92.16 35.84V732.16A71.68 71.68 0 0 0 163.84 803.84h696.32A71.68 71.68 0 0 0 931.84 732.16zM410.8288 604.3648h-67.1744V670.72a25.6 25.6 0 0 1-51.2 0v-67.1744H225.28a25.6 25.6 0 0 1 0-51.2h67.1744V486.4a25.6 25.6 0 0 1 51.2 0v66.7648h67.1744a25.6 25.6 0 0 1 0 51.2zM408.1664 310.272a25.6 25.6 0 0 1-36.2496 0l-54.0672-54.0672-53.8624 54.0672a25.6 25.6 0 0 1-36.2496-36.2496L281.8048 220.16l-54.0672-54.0672a25.6 25.6 0 1 1 36.2496-36.2496l54.0672 54.0672 54.0672-54.0672a25.6 25.6 0 1 1 36.2496 36.2496L354.304 220.16l54.0672 54.0672a25.6 25.6 0 0 1-0.2048 36.0448zM798.72 604.3648h-185.5488a25.6 25.6 0 0 1 0-51.2H798.72a25.6 25.6 0 0 1 0 51.2zM798.72 245.76h-185.5488a25.6 25.6 0 0 1 0-51.2H798.72a25.6 25.6 0 1 1 0 51.2zM705.9456 312.9344m-30.9248 0a30.9248 30.9248 0 1 1 61.8496 0 30.9248 30.9248 0 1 1-61.8496 0ZM705.9456 127.3856m-30.9248 0a30.9248 30.9248 0 1 1 61.8496 0 30.9248 30.9248 0 1 1-61.8496 0Z"  horiz-adv-x="1024" />

    
    <glyph glyph-name="icon-101" unicode="&#59230;" d="M850.5344 867.7376H331.9808a145.6128 145.6128 0 0 1-145.408-144.5888H151.1424a122.88 122.88 0 0 1-122.88-122.88v-577.3312a122.88 122.88 0 0 1 122.88-122.88h577.1264a122.88 122.88 0 0 1 122.88 122.88v35.6352a145.6128 145.6128 0 0 1 144.7936 145.408V722.5344a145.6128 145.6128 0 0 1-145.408 145.2032z m-50.5856-844.8a71.8848 71.8848 0 0 0-71.68-71.68H151.1424a71.8848 71.8848 0 0 0-71.68 71.68V600.2688a71.68 71.68 0 0 0 71.68 71.68h577.1264a71.68 71.68 0 0 0 71.68-71.68z m144.7936 181.0432a94.0032 94.0032 0 0 0-93.5936-94.0032V600.2688a122.88 122.88 0 0 1-122.88 122.88H237.9776a93.7984 93.7984 0 0 0 94.0032 93.3888h518.5536a94.208 94.208 0 0 0 94.208-94.0032zM610.9184 508.5184H268.288a25.6 25.6 0 0 1 0-51.2h145.8176V140.288a25.6 25.6 0 0 1 51.2 0V457.3184h145.6128a25.6 25.6 0 0 1 0 51.2z"  horiz-adv-x="1024" />

    
    <glyph glyph-name="icon-102" unicode="&#59231;" d="M512 706.3552A307.2 307.2 0 0 1 389.12 117.76v-96.4608a122.88 122.88 0 0 1 97.4848-120.4224v-2.6624A25.6 25.6 0 0 1 512-128a25.6 25.6 0 0 1 25.6 25.6v2.6624A122.88 122.88 0 0 1 634.88 20.6848V117.76a307.2 307.2 0 0 1-122.88 588.5952z m0-757.76a71.8848 71.8848 0 0 0-71.68 71.8848v3.6864h143.36v-3.6864a71.8848 71.8848 0 0 0-71.68-71.68z m102.4 215.4496A51.4048 51.4048 0 0 1 583.68 117.76v-40.96h-143.36v40.96a51.4048 51.4048 0 0 1-30.72 47.104 256.2048 256.2048 0 1 0 204.8 0zM512 742.1952a25.6 25.6 0 0 1 25.6 25.6v102.4a25.6 25.6 0 0 1-51.2 0v-102.4A25.6 25.6 0 0 1 512 742.1952zM772.9152 634.2656a25.3952 25.3952 0 0 1 18.0224 7.3728l72.4992 72.4992a25.6 25.6 0 0 1-36.2496 36.2496l-72.4992-72.4992a25.6 25.6 0 0 1 0-36.2496 26.2144 26.2144 0 0 1 18.2272-7.3728zM233.0624 641.6384a25.3952 25.3952 0 0 1 18.0224-7.3728 26.2144 26.2144 0 0 1 18.2272 7.3728 25.6 25.6 0 0 1 0 36.2496L196.8128 750.3872a25.6 25.6 0 0 1-36.2496-36.2496zM983.04 424.96h-102.4a25.6 25.6 0 0 1 0-51.2h102.4a25.6 25.6 0 0 1 0 51.2zM143.36 424.96H40.96a25.6 25.6 0 0 1 0-51.2h102.4A25.6 25.6 0 0 1 143.36 424.96z"  horiz-adv-x="1024" />

    
    <glyph glyph-name="icon-103" unicode="&#59232;" d="M898.4576 834.56H839.68v19.456a40.96 40.96 0 0 1-40.96 40.96H225.28a40.96 40.96 0 0 1-40.96-40.96V834.56H125.5424a69.0176 69.0176 0 0 1-68.8128-68.608v-81.92a259.8912 259.8912 0 0 1 121.6512-221.3888l7.168-4.5056A327.68 327.68 0 0 1 486.4 158.72v-234.496H327.68A25.6 25.6 0 0 1 327.68-128h368.64a25.6 25.6 0 0 1 0 51.2h-158.72V158.72a327.68 327.68 0 0 1 300.6464 299.4176l7.168 4.5056a259.8912 259.8912 0 0 1 121.6512 220.7744v81.92A69.0176 69.0176 0 0 1 898.4576 834.56z m-790.528-151.1424v81.92a17.6128 17.6128 0 0 0 17.6128 17.6128H184.32v-262.144a208.0768 208.0768 0 0 0-76.3904 162.6112z m680.5504-198.0416a276.48 276.48 0 0 0-552.96 0V843.776h552.96z m127.5904 198.0416A208.0768 208.0768 0 0 0 839.68 521.4208V783.5648h58.7776a17.6128 17.6128 0 0 0 17.6128-17.6128z"  horiz-adv-x="1024" />

    
    <glyph glyph-name="icon-104" unicode="&#59233;" d="M670.1056 894.3616c-201.728 0-353.8944-72.9088-353.8944-169.3696v-7.9872a21.7088 21.7088 0 0 1 0-3.8912v-143.36a348.16 348.16 0 1 1 331.3664-526.336h22.528C871.8336 43.008 1024 115.712 1024 212.1728v512C1024 821.4528 871.8336 894.3616 670.1056 894.3616z m302.6944-518.144c0-52.224-113.0496-111.616-277.2992-117.3504a342.016 342.016 0 0 1-42.1888 133.12h16.7936c131.4816 0 241.664 30.9248 302.6944 79.2576z m0 184.32c0-55.7056-124.3136-117.9648-302.6944-117.9648-17.8176 0-35.6352 0-52.8384 2.048A348.16 348.16 0 0 1 368.64 570.1632v64.9216c61.44-48.3328 171.008-79.2576 302.4896-79.2576s241.664 30.9248 302.6944 79.2576zM670.1056 842.9568c178.3808 0 302.6944-61.44 302.6944-117.9648s-124.3136-117.9648-302.6944-117.9648S368.64 669.2864 368.64 724.992s122.88 117.9648 301.4656 117.9648zM348.16-74.9568a297.5744 297.5744 0 1 0 297.984 297.3696A297.7792 297.7792 0 0 0 348.16-74.9568z m323.9936 169.1648A343.2448 343.2448 0 0 1 696.32 207.6672c119.3984 4.096 219.136 34.2016 276.0704 79.2576v-74.752c0.4096-55.5008-122.6752-117.1456-299.6224-117.9648zM251.904 292.864h236.9536a24.576 24.576 0 0 1 0 49.152h-98.5088v32.9728a28.8768 28.8768 0 0 1-57.5488 0v-32.9728h-80.0768a68.608 68.608 0 0 1 0-137.216h188.6208a24.1664 24.1664 0 1 0 0-48.3328H208.6912a24.576 24.576 0 0 1 0-49.152h124.1088v-37.2736a28.8768 28.8768 0 0 1 57.5488 0v37.2736h49.7664a73.3184 73.3184 0 1 1 0 146.6368H251.904a20.48 20.48 0 1 0 0 38.912z"  horiz-adv-x="1024" />

    
    <glyph glyph-name="icon-105" unicode="&#59234;" d="M955.181616 640.003226a8.806289 8.806289 0 0 1-1.843177 2.047974 14.131022 14.131022 0 0 1-2.252771 2.662366A23.142108 23.142108 0 0 1 942.074581 650.243097L524.083048 892.518444a25.39488 25.39488 0 0 1-25.599678 0L85.611772 652.700666a24.985285 24.985285 0 0 1-19.455754-28.671639l-1.228785-482.502721a25.190083 25.190083 0 0 1 12.69744-22.322918l422.292279-243.70893a25.190083 25.190083 0 0 1 25.599678 0l419.629912 243.70893a26.009272 26.009272 0 0 1 12.69744 22.118121l1.228785 485.165087a23.756501 23.756501 0 0 1-3.891151 13.51663zM512 840.909494l368.635355-213.603708-368.635355-213.808506L143.364645 627.100988zM117.355373 583.069543l368.635355-212.989316v-427.82181L116.126588 156.066923zM537.599677-58.355975V368.441847l370.273735 215.242088-1.228785-427.617012z"  horiz-adv-x="1024" />

    
    </font>
</defs>
</svg>
